<svg xmlns="http://www.w3.org/2000/svg" xmlns:xlink="http://www.w3.org/1999/xlink" viewBox="0 0 634.88 322.85"><defs><style>.cls-1{isolation:isolate;}.cls-2{fill:#2f1829;}.cls-3{fill:url(#linear-gradient);}.cls-4{opacity:0.45;fill:url(#linear-gradient-2);}.cls-10,.cls-12,.cls-14,.cls-27,.cls-30,.cls-39,.cls-4,.cls-7{mix-blend-mode:overlay;}.cls-21,.cls-35,.cls-5,.cls-6{mix-blend-mode:hard-light;}.cls-5{fill:url(#linear-gradient-3);}.cls-6{fill:url(#linear-gradient-4);}.cls-13,.cls-7{fill:#fff;}.cls-12,.cls-14,.cls-27,.cls-30,.cls-39,.cls-7{opacity:0.25;}.cls-8{fill:url(#linear-gradient-5);}.cls-9{fill:url(#linear-gradient-6);}.cls-11{fill:#f3475c;}.cls-15{fill:#ffca51;}.cls-16{fill:#982245;}.cls-17{fill:url(#linear-gradient-7);}.cls-18{fill:url(#linear-gradient-8);}.cls-19{fill:url(#linear-gradient-9);}.cls-20{fill:url(#linear-gradient-10);}.cls-21{fill:url(#linear-gradient-11);}.cls-22{fill:url(#linear-gradient-12);}.cls-23{fill:url(#linear-gradient-13);}.cls-24{fill:url(#linear-gradient-14);}.cls-25{fill:#2f172b;}.cls-26{fill:url(#linear-gradient-15);}.cls-27,.cls-28,.cls-29,.cls-30,.cls-39,.cls-40{fill:none;}.cls-27,.cls-28,.cls-29,.cls-30,.cls-39{stroke:#fff;stroke-width:0.46px;}.cls-27,.cls-28,.cls-29,.cls-30{stroke-linecap:round;stroke-linejoin:round;}.cls-29{stroke-dasharray:1.39 1.39;}.cls-30{stroke-dasharray:1.39;}.cls-31{fill:#4c3146;}.cls-32{fill:#1f3247;}.cls-33{fill:url(#linear-gradient-16);}.cls-34{fill:#122230;}.cls-35{fill:url(#linear-gradient-17);}.cls-36{fill:url(#linear-gradient-18);}.cls-37{fill:#f5b539;}.cls-38{fill:url(#linear-gradient-19);}.cls-39,.cls-40{stroke-miterlimit:10;}.cls-40{stroke:#1f3247;stroke-width:0.93px;}.cls-41{fill:#ffadae;}</style><linearGradient id="linear-gradient" x1="327.22" y1="249.71" x2="329.87" y2="46.15" gradientUnits="userSpaceOnUse"><stop offset="0" stop-color="#e8d197"/><stop offset="1" stop-color="#fef5da"/></linearGradient><linearGradient id="linear-gradient-2" x1="326.61" y1="147.14" x2="330.08" y2="241.31" gradientUnits="userSpaceOnUse"><stop offset="0"/><stop offset="1" stop-opacity="0"/></linearGradient><linearGradient id="linear-gradient-3" x1="343.98" y1="63.39" x2="344.64" y2="86.52" gradientUnits="userSpaceOnUse"><stop offset="0" stop-color="#fff"/><stop offset="1" stop-color="#fff" stop-opacity="0"/></linearGradient><linearGradient id="linear-gradient-4" x1="129.78" y1="25.36" x2="131.77" y2="76.25" xlink:href="#linear-gradient-3"/><linearGradient id="linear-gradient-5" x1="455.43" y1="228.45" x2="433.63" y2="40.59" xlink:href="#linear-gradient"/><linearGradient id="linear-gradient-6" x1="59.76" y1="429.71" x2="23" y2="113.1" xlink:href="#linear-gradient"/><linearGradient id="linear-gradient-7" x1="196.99" y1="241.97" x2="195.67" y2="147.68" gradientUnits="userSpaceOnUse"><stop offset="0" stop-color="#2f1829"/><stop offset="1" stop-color="#3b223c"/></linearGradient><linearGradient id="linear-gradient-8" x1="322.32" y1="240.21" x2="321" y2="145.92" xlink:href="#linear-gradient-7"/><linearGradient id="linear-gradient-9" x1="447.14" y1="238.46" x2="445.82" y2="144.18" xlink:href="#linear-gradient-7"/><linearGradient id="linear-gradient-10" x1="280.75" y1="72.63" x2="291.99" y2="108.32" xlink:href="#linear-gradient-7"/><linearGradient id="linear-gradient-11" x1="575.02" y1="235.78" x2="417.07" y2="125.41" xlink:href="#linear-gradient-3"/><linearGradient id="linear-gradient-12" x1="566.96" y1="246" x2="566.83" y2="238.28" gradientUnits="userSpaceOnUse"><stop offset="0" stop-color="#fecba6"/><stop offset="1" stop-color="#d17878"/></linearGradient><linearGradient id="linear-gradient-13" x1="529.41" y1="199.56" x2="553.97" y2="176.21" xlink:href="#linear-gradient-12"/><linearGradient id="linear-gradient-14" x1="568.37" y1="208.64" x2="568.7" y2="181.99" xlink:href="#linear-gradient-12"/><linearGradient id="linear-gradient-15" x1="552.03" y1="166.08" x2="557.73" y2="167.32" xlink:href="#linear-gradient-12"/><linearGradient id="linear-gradient-16" x1="550.14" y1="250.19" x2="552.56" y2="238.57" xlink:href="#linear-gradient-12"/><linearGradient id="linear-gradient-17" x1="-1668.55" y1="235.78" x2="-1826.51" y2="125.41" gradientTransform="matrix(-1, 0, 0, 1, -1593.32, 0)" xlink:href="#linear-gradient-3"/><linearGradient id="linear-gradient-18" x1="95.37" y1="163.07" x2="93.44" y2="173.7" xlink:href="#linear-gradient-12"/><linearGradient id="linear-gradient-19" x1="123.95" y1="190.2" x2="112.8" y2="193.38" xlink:href="#linear-gradient-12"/></defs><g class="cls-1"><g id="Layer_2" data-name="Layer 2"><g id="OBJECTS"><path class="cls-2" d="M101,254.38s9.83,17.42,80.54,25.35S287.91,314.1,332.85,322s100.45-44.28,148.7-36.35,106.4-22.28,111-31.3Z"/><path class="cls-3" d="M611.58,250.93H601.13L140.5,251s-4.65-3.68-11.91-10c-3.12-2.71-6.71-5.91-10.62-9.5q-2.13-2-4.38-4.07c-13.72-12.91-30.31-30-43.79-48.12-14.21-19.12-25-39.47-25.26-57.5,0-.4,0-.8,0-1.2.16-17.45,3.59-36.26,12.08-53.72A105.21,105.21,0,0,1,77,38.26C99.87,15.49,136.84-.45,194.23,0c66.91.54,136.31,25.49,199,60h0c13.11,7.21,25.92,14.85,38.36,22.78,9.2,5.85,18.19,11.87,26.94,18a785,785,0,0,1,66.69,52.16C570.31,192.35,602,229.64,611.58,250.93Z"/><path class="cls-4" d="M611.58,250.93H601.13L140.5,251s-4.65-3.68-11.91-10c-3.12-2.71-6.71-5.91-10.62-9.5q-2.13-2-4.38-4.07c-13.72-12.91-30.31-30-43.79-48.12-14.21-19.12-25-39.47-25.26-57.5,5.72-3,19.13-9.11,30.23-6.34,14.54,3.64,17.64,20.91,17.64,20.91S102.83,128,113.74,132s12.58,15.55,12.58,15.55,12.86-6.63,24.44-3.81,20.87,14,8.46,21.32-26.15,1.65-26.48,1.52c.17.21,5,6.75-3.79,14.8-9,8.19,25.47,15.28,25.47,15.28s1.3-22.45,24.44-19.91,41.79,15,41.79,15,1.17-34.3,19.67-40.58,28,13.87,28,13.87,41-26.54,54.92-1.79,14.49,29.42,14.49,29.42,11.87-65,49.08-62,44.13,28.78,43.48,31.41,10.69-16.68,21.88-6.2S469.87,181,469.87,181l58.89-7s-6-11.62-3.56-21.14C570.31,192.35,602,229.64,611.58,250.93Z"/><path class="cls-5" d="M431.57,82.79H257.5c21.81,0,26.11-7.94,39-12.23.62-.2,1.23-.38,1.84-.53,12.05-3.06,22,3.82,29.72,3.5,8.09-.33,17-8.92,26.27-11.89,3.14-1,6.39-.69,9.73.1,6.5,1.54,13.32,4.84,20.24,3.53,6-1.14,6.48-3.58,8.91-5.26h0C406.32,67.22,419.13,74.86,431.57,82.79Z"/><path class="cls-6" d="M206.19,66.92H56.61a105.31,105.31,0,0,1,20-28.26l.41-.4a71.39,71.39,0,0,1,11.36-1.41c23.73-1,28.75,16.86,28.75,16.86s6.21-8.26,17.45-4.3,7.27,8.92,16.19,11.57a9.86,9.86,0,0,0,3.65.31c8.51-.73,19.25-10,28.73-6.59C194.06,58.66,186.94,66.92,206.19,66.92Z"/><path class="cls-2" d="M631.5,257.76H75.17a3.38,3.38,0,0,1-3.38-3.38h0A3.37,3.37,0,0,1,75.17,251H631.5a3.37,3.37,0,0,1,3.38,3.37h0A3.38,3.38,0,0,1,631.5,257.76Z"/><path class="cls-7" d="M364.06,61.74c-9.92,2.54-21.1,13.31-28.35,14.88-9.14,2-19.72-2.65-30-5.22A49.74,49.74,0,0,0,298.34,70c12.05-3.06,22,3.82,29.72,3.5,8.09-.33,17-8.92,26.27-11.89C357.47,60.63,360.72,61,364.06,61.74Z"/><path class="cls-7" d="M154.42,61.29c-8.92,4.66-13.06-5.95-20.84-9.42-8.91-4-15.2,8.45-17.84,6.3s-3.8-11.4-13.88-16.2c-5.72-2.71-16.76-3.31-25.25-3.31l.41-.4a71.39,71.39,0,0,1,11.36-1.41c23.73-1,28.75,16.86,28.75,16.86s6.21-8.26,17.45-4.3,7.27,8.92,16.19,11.57A9.86,9.86,0,0,0,154.42,61.29Z"/><path class="cls-8" d="M394.62,39.58s62.45,55.76,87.23,48.16S350.92,6.42,394.62,39.58Z"/><path class="cls-9" d="M34.72,96.26s-21.28,37.38,15.87,76.8c8.59,9.12,9.58,26.06-7.6,27S-1,159,0,125.34,40.43,76.38,34.72,96.26Z"/><path class="cls-2" d="M460.67,294.93s-36,7.93-45.21,20.16c-4.53,6,13.44,5.09,28.73-1.49C460.15,306.75,473.3,294.09,460.67,294.93Z"/><path class="cls-2" d="M199.84,292.62s14-.33,26.33,4.46,15,19.5,2.75,21.32-40.07-14.48-38.5-21.15C191.58,292.34,199.84,292.62,199.84,292.62Z"/><path class="cls-10" d="M136,212.9l-7.91,27.43c-3.11-2.71-6.71-5.9-10.62-9.5l-1.71-3.2s3-35.17-6.93-49.26c9.51,6.65,14.06,33.26,14.06,33.26l-1.48,2h1.48a37.21,37.21,0,0,1,3.27,11.15c6.09-31.65.17-46.94,0-47.36A48.07,48.07,0,0,1,134,193.06c2.91,9.77,1.82,15.93,1.82,15.93l-2.37,3.91Z"/><path class="cls-11" d="M375.78,239.88a40.6,40.6,0,0,0,4.49-4.79c.34-.43.65-.88.93-1.31l1.17,1.42L382,233s8.06-2.83,11-10.59c-1.77,8.55-5.18,14.88-9.2,17.83a8.5,8.5,0,0,1-5.53,1.83C372,241.7,375.78,239.88,375.78,239.88Z"/><g class="cls-12"><path class="cls-13" d="M392.94,222.37a50.39,50.39,0,0,1-2.5,6.48,38.38,38.38,0,0,1-3.44,6,20.17,20.17,0,0,1-4.84,5,10.56,10.56,0,0,1-6.64,2,.23.23,0,0,1-.22-.24.22.22,0,0,1,.24-.22h0A10.2,10.2,0,0,0,382,239.6a19.91,19.91,0,0,0,4.84-4.85,37.9,37.9,0,0,0,3.53-5.95A51.15,51.15,0,0,0,392.94,222.37Z"/></g><path class="cls-14" d="M375.78,239.88a40.6,40.6,0,0,0,4.49-4.79,13,13,0,0,0,3.47,5.11,8.5,8.5,0,0,1-5.53,1.83C372,241.7,375.78,239.88,375.78,239.88Z"/><path class="cls-10" d="M313.16,224.43S294.53,207,297.55,183.62c1.91,10.81,9.78,23.72,9.78,23.72l-1,2.92,3.49-.68s4.41-26.65-5.51-39.48c13.38,13.78,13.23,34.3,13.23,34.3l-2.52,3.78,2.52,1.11s-2.94,10,5.77,6.13,14.22-36.9,6.35-45.32c9.45,8.11,7.87,36,7.87,36.93s-4.09,4.68-4.09,4.68l3.15,2.25S334.64,232.84,313.16,224.43Z"/><path class="cls-10" d="M398.47,249.27s-6.47-6.07-5.42-14.18a29.64,29.64,0,0,0,3.4,8.24l-.34,1,1.22-.23s1.53-9.26-1.92-13.72c4.65,4.79,4.6,11.92,4.6,11.92l-.88,1.31.88.39s-1,3.46,2,2.13,4.94-12.82,2.21-15.75c3.28,2.82,2.73,12.51,2.73,12.83s-1.42,1.63-1.42,1.63l1.1.78S405.94,252.19,398.47,249.27Z"/><path class="cls-15" d="M373.73,240.36l-5.26.37c3.8-3.41,3.23-6.67,2.66-8.17a4.33,4.33,0,0,0-.41-.85l2.48-.4-1.39-1.9s4.5-5.19,6.19-19a23.55,23.55,0,0,1,.44,23.23A28.37,28.37,0,0,1,373.73,240.36Z"/><g class="cls-12"><path class="cls-13" d="M378,210.37a47.59,47.59,0,0,1,1,7.8,45.09,45.09,0,0,1-.26,7.88,33.21,33.21,0,0,1-2,7.65,23.68,23.68,0,0,1-4.26,6.67.22.22,0,0,1-.32,0,.23.23,0,0,1,0-.33h0a23.22,23.22,0,0,0,4.27-6.48,32.62,32.62,0,0,0,2-7.54,45.63,45.63,0,0,0,.38-7.84A48.8,48.8,0,0,0,378,210.37Z"/></g><path class="cls-14" d="M373.73,240.36l-5.26.37c3.8-3.41,3.23-6.67,2.66-8.17a9.47,9.47,0,0,0,7.31,1A28.37,28.37,0,0,1,373.73,240.36Z"/><path class="cls-16" d="M408,250.31H322.75l13.66-11.09s18.19-9.36,25.78-7.4,6.38,8.33,6.38,8.33A10.49,10.49,0,0,1,369.8,239c1.69-1.31,4.89-3.09,8.13-1.16,4.62,2.75,3.89,6.39,3.86,6.56.15-.15,2.93-2.83,5.18-2a6.18,6.18,0,0,1,3.21,3.42s2.95-4.14,5.49-2.62a11.9,11.9,0,0,1,4,4.6S403.71,243.84,408,250.31Z"/><path class="cls-14" d="M391.55,250.31h-68.8l13.66-11.09s18.19-9.36,25.78-7.4,6.38,8.33,6.38,8.33A10.49,10.49,0,0,1,369.8,239a16.56,16.56,0,0,1,0,4.22s3.85-1.46,6.39.64,1.76,4,1.76,4a8,8,0,0,1,7.27,0A54.55,54.55,0,0,0,391.55,250.31Z"/><path class="cls-17" d="M237,190.3V96.73H201.48v.32L158.7,165.87,140,196l2.11,21.73h59.39v32.59H237V217.72h15.6V190.3Zm-35.55,0H173.85l25.41-43.68,2.22-3.58Z"/><path class="cls-18" d="M360.85,109.5q-14-17-39.55-17t-39.5,16.87q-14,16.88-14,48v28.06q0,30.92,14,47.89t39.66,17q25.42,0,39.4-16.88t14-48V157.49Q374.89,126.48,360.85,109.5Zm-57.37,41q.3-15.4,4.48-23t13.34-7.6q9.39,0,13.72,8.18t4.32,24.73v38q-.1,16.56-4.43,24.31t-13.4,7.76q-9.39,0-13.71-8-4.08-7.5-4.31-23.23c0-.63,0-1.27,0-1.92Z"/><path class="cls-19" d="M487.22,190.3V96.73H451.67v.32L390.18,196l2.11,21.73h59.38v32.59h35.55V217.72h15.61V190.3Zm-35.55,0H424l25.43-43.68,2.21-3.58Z"/><path class="cls-7" d="M230.41,96.73c-4.75,6.09-21.07,3.91-24.73,4.3-4.17.44-33.07,51.33-37,57.79-2.57,4.19-7.09,6.18-10,7.05l42.78-68.82v-.32Z"/><path class="cls-7" d="M487.22,96.73v70.85c-9.11-7.56-4.09-63.38-5.53-65.23s-20.49-.66-24-1.76a12,12,0,0,1-5.23-3.86Z"/><path class="cls-14" d="M328.8,231.67c-28.63,1.32-25.32-40-25.32-40v0q.22,15.72,4.31,23.23,4.32,8,13.71,8,9.08,0,13.4-7.76t4.43-24.31v-38q0-16.56-4.32-24.73t-13.72-8.18S339,117.77,346.25,144,357.44,230.35,328.8,231.67Z"/><path class="cls-20" d="M291.13,109.38s-11.89-8.59-13.21-22c8.59,2.42,13.21,12.85,13.21,12.85s-2.2-9.58,0-16.11C297.52,93.3,295.76,100.79,291.13,109.38Z"/><path class="cls-21" d="M528.77,187.19s.05.28-.34.68a4.66,4.66,0,0,1-1.7,1c-5.43,2.08-16.54-2.95-22.57-6.35s-23.23-.61-34.81-2.18-16.49-7.85-26.9-10.4-49.25,8.62-51.41-.07,41.45-93.37,45.18-87.47,16.64,6.3,25.7,11,16.81,28,26.88,30.33a16.1,16.1,0,0,1,4,1.53c8,4.27,13.79,15,14,23.84C507,159.24,521,167.48,526.09,173S528.77,187.19,528.77,187.19Z"/><path class="cls-7" d="M528.77,187.19s.05.28-.34.68c1.81-11.17-8.52-16.46-18-24.33-9.74-8.09-5.64-14.21-7.63-22.47-1.18-4.88-6.16-11.38-10-15.87,8,4.27,13.79,15,14,23.84C507,159.24,521,167.48,526.09,173S528.77,187.19,528.77,187.19Z"/><path class="cls-22" d="M569.59,240.65v3.29a27.1,27.1,0,0,0-3.24.16c-.78.07-1.49.15-1.89.2l-.3-2.81,1.3-.2Z"/><path class="cls-2" d="M528.56,185.71,526,188.06a.65.65,0,0,0,.24,1.1l2.18.69,5,5.52a.59.59,0,0,0,.84,0l.83-.76a.58.58,0,0,0,0-.84l-5-5.52-.5-2.24A.64.64,0,0,0,528.56,185.71Z"/><path class="cls-23" d="M548.39,189.22c-.65.86-1.52,2-2.41,3.11-.33.42-.67.84-1,1.24-1.37,1.7-2.63,3.11-3,3.18-1,.17-6.57-3-7.4-3s-2.68,1.36-3.18,1.23-3.22-2.64-3.14-3.26,2.52-2.76,3.72-3.1a5.55,5.55,0,0,1,2,.22l.14,0c2.34.51,5.71,1.57,6.24,1.31a7.83,7.83,0,0,0,1.41-2.09c.21-.38.43-.79.64-1.2s.54-1,.77-1.49l.61-1.23a30.32,30.32,0,0,0,2.15,2.69A12.68,12.68,0,0,0,548.39,189.22Z"/><path class="cls-24" d="M571.11,195.8c0,1.82,0,3.57-.14,5-.44,5.66-.88,10.28-2.81,10.39s-2.31-15.31-2.21-16.24c0-.19,0-.57.06-1.08,0-1.68.06-4.69.09-6a5.77,5.77,0,0,1,0-.6l.36-.23,4.21-2.69s.25,3.65.36,7.81c0,.57,0,1.14,0,1.72S571.11,195.17,571.11,195.8Z"/><path class="cls-14" d="M571.11,195.8a7.17,7.17,0,0,1-4.16,2c-2.65.06,1.22-5.36,2.1-5.48.34,0,1.15-.09,2-.12,0,.57,0,1.14,0,1.72S571.11,195.17,571.11,195.8Z"/><path class="cls-2" d="M571.09,193.89a8,8,0,0,1-4.4.22,2.35,2.35,0,0,1-.68-.25c-1.62-.91-1-3.58.09-6,.12-.28.25-.56.38-.83l4.21-2.69S571,189.07,571.09,193.89Z"/><path class="cls-25" d="M562.16,163.41a5,5,0,0,1-.78,2,9.59,9.59,0,0,1-2,2.37,2.19,2.19,0,0,1-1.49.66c-1.35-.2-3-2.37-3.06-2.79s1.45-.57,1.26-1.78-1-1.43-1.55-1.21a3.12,3.12,0,0,0-1.25,2.67c-.39-.06-1.12-1.52-2.48-2.35a3.5,3.5,0,0,0-1.27-.51,4,4,0,0,0-2.06.18c-.36-4.37,2.28-6.3,4.32-5.53,0,0-.74-1.46-1.81-1.77a3.74,3.74,0,0,1,3.08,2.46,4.57,4.57,0,0,1,3.83-3.34c3.13-.38,3.74,3.75,3.74,3.75A7.83,7.83,0,0,0,561,155a9.57,9.57,0,0,1-.12,4.31,2.88,2.88,0,0,1,1.87,2.36c-1.27-1-1.35-.88-1.35-.88A3.18,3.18,0,0,1,562.16,163.41Z"/><path class="cls-26" d="M559.38,167.76c-.24.69-.48,1.33-.58,1.56-.26.58-3.47,3.28-5.78.17a12.11,12.11,0,0,1-2.21-6.53c1.36.83,2.09,2.29,2.48,2.35a3.12,3.12,0,0,1,1.25-2.67c.58-.22,1.35,0,1.55,1.21s-1.28,1.37-1.26,1.78,1.71,2.59,3.06,2.79A2.19,2.19,0,0,0,559.38,167.76Z"/><path class="cls-25" d="M561,154.88a2.38,2.38,0,0,0-.23-.45A1.07,1.07,0,0,1,561,154.88Z"/><path class="cls-15" d="M572.12,183.81a12.45,12.45,0,0,1-1,1.61c-.11.15-.22.3-.33.43a10.56,10.56,0,0,1-1.85,1.87s0,0,0,.11,0,.24.08.43c.07.45.18,1.15.3,2l.06.43c.05.39.1.81.15,1.24,0,.24.05.49.08.74l0,.43c.06.67.1,1.35.1,2a3.09,3.09,0,0,1,0,.43,8.68,8.68,0,0,1-.19,2,3.68,3.68,0,0,1-.13.43,1.4,1.4,0,0,1-.23.4,1.34,1.34,0,0,1-.48.33c-1.46.65-5.33.69-9.16.48h0a82.19,82.19,0,0,1-8.25-.81,3.84,3.84,0,0,1-1.2-.4,2.13,2.13,0,0,1-.54-.43,1.7,1.7,0,0,1-.23-.3,2.87,2.87,0,0,1-.38-1.68c0-.14,0-.29,0-.43a12.7,12.7,0,0,1,.34-1.88l0-.1c0-.15.07-.29.11-.43.17-.66.36-1.33.51-2,0-.11,0-.21.07-.3l0-.13c.17-.8.28-1.45.35-2,0-.15,0-.3.05-.43a5,5,0,0,0,0-1.65s-.34.84-.76,1.65l-.24.43c-.32.54-.66,1-.93,1a.28.28,0,0,1-.16,0,5.75,5.75,0,0,1-1.17-1l-.42-.43c-.3-.3-.6-.64-.91-1s-.58-.67-.85-1l-.35-.43c-.37-.46-.7-.89-1-1.26a5.83,5.83,0,0,1-.43-.72,1.1,1.1,0,0,1-.1-.29.82.82,0,0,1,0-.14,11.69,11.69,0,0,1,.65-2c.06-.14.11-.28.17-.43.25-.6.54-1.28.87-2l.21-.43c.31-.65.66-1.32,1-2l.24-.43c.39-.68.81-1.36,1.23-2l.3-.43a13.24,13.24,0,0,1,1.7-2c.18-.16.35-.3.52-.43l.3-.2a12.61,12.61,0,0,1,2.35-1.18,13.74,13.74,0,0,1,5-.92,10.27,10.27,0,0,1,3.9.77,12.18,12.18,0,0,1,2.7,1.53l.55.43a16.89,16.89,0,0,1,2,2c.12.14.24.28.35.43a20,20,0,0,1,1.41,2l.27.43c.37.62.73,1.29,1.07,2,.07.14.14.29.2.43.3.63.59,1.29.85,2,.05.14.11.29.17.43.23.64.46,1.3.67,2,0,.14.09.27.13.41v0C572.05,183.56,572.09,183.69,572.12,183.81Z"/><path class="cls-7" d="M564.9,171.39H549.61c.18-.16.35-.3.52-.43h14.22Z"/><path class="cls-7" d="M567.24,173.8H547.61l.3-.43h19C567,173.51,567.13,173.65,567.24,173.8Z"/><path class="cls-7" d="M568.92,176.21H546.14l.24-.43h22.27Z"/><path class="cls-7" d="M570.19,178.62H544.91l.21-.43H570C570.06,178.33,570.13,178.48,570.19,178.62Z"/><path class="cls-7" d="M571.21,181H543.87c.06-.14.11-.28.17-.43h27C571.09,180.74,571.15,180.89,571.21,181Z"/><path class="cls-7" d="M572,183.44h-28.7a1.1,1.1,0,0,1-.1-.29.82.82,0,0,1,0-.14h28.66c0,.14.09.27.13.41Z"/><path class="cls-7" d="M571.11,185.42c-.11.15-.22.3-.33.43H545l-.35-.43Z"/><path class="cls-7" d="M546.8,187.83h2.92l-.24.43h-2.26Z"/><path class="cls-7" d="M569,188.26H550.42c0-.15,0-.3.05-.43H569C569,187.92,569,188.07,569,188.26Z"/><path class="cls-7" d="M569.39,190.67H550c0-.11,0-.21.07-.3l0-.13h19.26Z"/><path class="cls-7" d="M569.65,193.08h-20.3c0-.15.07-.29.11-.43h20.16Z"/><path class="cls-7" d="M569.75,195.06a3.09,3.09,0,0,1,0,.43H549c0-.14,0-.29,0-.43Z"/><path class="cls-7" d="M569.56,197.47a3.68,3.68,0,0,1-.13.43H550.11a2.13,2.13,0,0,1-.54-.43Z"/><path class="cls-2" d="M570,237.89c-.91.58-7,1.24-7,1.24L562.8,238l-1.13-6.66v0L559,215.59l-2.67,19.66-.79,5.78s-7.52.41-7.52-1.4c0-.22,0-1,.05-2.28.23-8,1.07-34.26,1.26-40.18a2.68,2.68,0,0,0,2,1.13l.28,0c3.84.61,14.48,1.48,17.13.29.11,1,.22,2.48.33,4.39.41,7.63.71,21.35.85,29.11C570,235.61,570,237.89,570,237.89Z"/><path class="cls-14" d="M561.67,231.33,559,215.59s.72-6.34,1-7.05,2.2-.17,3-.72c.44,1.05-2.31,2.37-2.54,5.68C560.35,215.87,561.18,225.9,561.67,231.33Z"/><path class="cls-27" d="M550.82,200.59s-.25,3.59,2.69,5.33"/><g class="cls-12"><line class="cls-28" x1="551.45" y1="205.4" x2="551.41" y2="206.09"/><line class="cls-29" x1="551.35" y1="207.48" x2="549.94" y2="237.22"/><line class="cls-28" x1="549.91" y1="237.91" x2="549.87" y2="238.61"/></g><line class="cls-30" x1="561.72" y1="208.81" x2="564.36" y2="237.12"/><path class="cls-27" d="M564,201.16s-.3,3.46,0,4.13,1.59,1.22,1.87,1.37,1.53-1,1.59-1.7.14-3.66.14-3.66A11.79,11.79,0,0,0,564,201.16Z"/><path class="cls-14" d="M570,237.89c-.91.58-7,1.24-7,1.24L562.8,238c1.78-1,5.29-3.23,7.1-5.89C570,235.61,570,237.89,570,237.89Z"/><path class="cls-31" d="M570.37,240.53l-.78.12-5.43.84-.38.06a1.45,1.45,0,0,1-1.67-1.21l0-.12a1.46,1.46,0,0,1,1.22-1.66l6.59-1a1.44,1.44,0,0,1,1.66,1.21l0,.12A1.46,1.46,0,0,1,570.37,240.53Z"/><path class="cls-14" d="M556.34,235.25l-.79,5.78s-7.52.41-7.52-1.4c0-.22,0-1,.05-2.28C549.85,237.21,554,236.75,556.34,235.25Z"/><path class="cls-31" d="M556.22,241.41v.12a1.46,1.46,0,0,1-1.58,1.32h0l-5.74-.53-.85-.08a1.45,1.45,0,0,1-1.32-1.58v-.12a1.45,1.45,0,0,1,1.59-1.32l6.64.61A1.45,1.45,0,0,1,556.22,241.41Z"/><path class="cls-14" d="M569.05,203a22.89,22.89,0,0,1-17.46-4.68c3.84.61,14.48,1.48,17.13.29C568.83,199.59,568.94,201.11,569.05,203Z"/><path class="cls-14" d="M550,190.37c.71-3.31.44-4.19.44-4.19s-1.21,3-1.93,3.08c-.33,0-1.5-1.11-2.66-2.41a7,7,0,0,0,3.34-1.66c1.24-1.41,1.11-7.4,1.58-7.44s1.58,11.08-1.49,15.43C549.55,192.25,549.84,191.28,550,190.37Z"/><path class="cls-14" d="M572.12,183.81a12.21,12.21,0,0,1-3.19,3.91s-1.63-8.58-2.12-9.42c-.39-.66.16-1.35,1.06,1.57.69,2.26,2.52,4,4.14,3.55C572.05,183.55,572.09,183.68,572.12,183.81Z"/><path class="cls-14" d="M569.2,198.3a1.34,1.34,0,0,1-.48.33c-1.46.65-5.33.69-9.16.48,2.62-.35,8.89-1.74,10-7.2C569.82,194.45,569.94,197.39,569.2,198.3Z"/><path class="cls-14" d="M561.65,169.43a1.72,1.72,0,0,1-1.86.36c-1.87-.44-4.35.44-5.65.25a3.55,3.55,0,0,1-1.36-.46,13.74,13.74,0,0,1,5-.92A10.27,10.27,0,0,1,561.65,169.43Z"/><path class="cls-2" d="M548.39,189.22c-.65.86-1.52,2-2.41,3.11a16.61,16.61,0,0,1-4.26-4.25c.76-1.37,1.59-3.05,2-3.92a30.32,30.32,0,0,0,2.15,2.69A12.68,12.68,0,0,0,548.39,189.22Z"/><path class="cls-14" d="M548.39,189.22c-.65.86-1.52,2-2.41,3.11-.33.42-.67.84-1,1.24a18.64,18.64,0,0,0-1.85-8.18l.61-1.23a30.32,30.32,0,0,0,2.15,2.69A12.68,12.68,0,0,0,548.39,189.22Z"/><path class="cls-7" d="M542.36,186.88a7,7,0,0,1-1.23,2.93c-.33.52-.06,2.79-.37,2.52s-.44-1.38-.85-1.75a48.63,48.63,0,0,0-5.84-1.72c2.34.51,5.71,1.57,6.24,1.31a7.83,7.83,0,0,0,1.41-2.09C541.93,187.7,542.15,187.29,542.36,186.88Z"/><path class="cls-14" d="M561.38,165.39a9.59,9.59,0,0,1-2,2.37,2.19,2.19,0,0,1-1.49.66c-1.35-.2-3-2.37-3.06-2.79s1.45-.57,1.26-1.78-1-1.43-1.55-1.21a3.12,3.12,0,0,0-1.25,2.67c-.39-.06-1.12-1.52-2.48-2.35a3.5,3.5,0,0,0-1.27-.51,4.34,4.34,0,0,1,2.12.12c1.25.52,1.29,1,1.29,1a2.55,2.55,0,0,1,2.15-2.15C556.79,161.12,558.12,165.7,561.38,165.39Z"/><path class="cls-32" d="M555.55,250.31H542.41a3.44,3.44,0,0,1-.13-.94,2,2,0,0,1,1.26-2c.37-.15.78-.33,1.19-.53,1.65-.78,3.42-1.81,3.71-2.4l.26.12a10.86,10.86,0,0,0,1.55.56,3.72,3.72,0,0,0,.89.14,28.31,28.31,0,0,0,3.06-.49c.42-.05.72-.05.8.08a32.14,32.14,0,0,1,.49,4.51C555.52,249.94,555.55,250.31,555.55,250.31Z"/><path class="cls-33" d="M554.58,242.84c-.1.61-.24,1.35-.38,1.94-.65.08-1.58.32-2.33.43a4.11,4.11,0,0,1-.73.06,7.75,7.75,0,0,1-2.44-.7c0-.66.08-1.63.14-2.26l2.26.21Z"/><path class="cls-32" d="M571.3,250.31h-7.93a2.38,2.38,0,0,1-.12-.94,3.55,3.55,0,0,1,.31-1.32c.58-1.26.28-3.33.55-3.71l.35,0a44.16,44.16,0,0,1,5.13-.36.61.61,0,0,1,.19,0c.53.17,1.14,3.63,1.4,5.39C571.24,249.82,571.29,250.17,571.3,250.31Z"/><path class="cls-14" d="M555.49,249.37c0,.57.06.94.06.94H542.41a3.44,3.44,0,0,1-.13-.94Z"/><path class="cls-14" d="M571.3,250.31h-7.93a2.38,2.38,0,0,1-.12-.94h7.93C571.24,249.82,571.29,250.17,571.3,250.31Z"/><path class="cls-34" d="M550.25,245.13c-1.22.81-3.49,2.24-4.26,2.25a1.82,1.82,0,0,1-1.26-.53c1.65-.78,3.42-1.81,3.71-2.4l.26.12A10.86,10.86,0,0,0,550.25,245.13Z"/><path class="cls-14" d="M554.58,242.84c-.1.61-.24,1.35-.38,1.94-.65.08-1.58.32-2.33.43l-.77-2.69Z"/><path class="cls-14" d="M569.59,240.65v3.29a27.1,27.1,0,0,0-3.24.16l-.89-2.81Z"/><path class="cls-35" d="M121.48,187.19s-2.42-8.73,2.68-14.22,19.05-13.73,19.29-23.93,7.94-23,18-25.36S179.27,98,188.33,93.34s22-5,25.7-11,47.33,78.77,45.18,87.47-41-2.49-51.41.07-15.32,8.83-26.9,10.4-28.78-1.22-34.81,2.18-17.14,8.42-22.57,6.35C121.33,188,121.48,187.19,121.48,187.19Z"/><path class="cls-2" d="M123.59,188.85l-2.47-2.48a.65.65,0,0,0-1.08.29l-.6,2.21-5.29,5.27a.6.6,0,0,0,0,.85l.79.79a.59.59,0,0,0,.85,0l5.3-5.27,2.21-.58A.65.65,0,0,0,123.59,188.85Z"/><path class="cls-36" d="M98,162.56s-.06,1-.22,2.22a12.59,12.59,0,0,1-1.33,4.68l-.07.11c-1.06,1.4-3.09,1.06-4.12-.68.61-.75.88-1.72.47-2.1-.85-.8-.62-3.06.59-2.78s1.41,3.53,1.85,3.44S97.27,164.55,98,162.56Z"/><path class="cls-2" d="M98.34,161.16a4.66,4.66,0,0,1-.33,1.4c-.12.32-.27.67-.43,1-.85,1.81-2.12,3.81-2.4,3.86-.44.09-.64-3.16-1.85-3.44s-1.44,2-.59,2.78c.41.38.14,1.35-.47,2.1a2.1,2.1,0,0,1-2.77.74c-2-1.24-2.38-9-2.37-9.61a4.1,4.1,0,0,1,.13-1.19,4.35,4.35,0,0,1,2.63-3C92.89,154.54,98.34,154.81,98.34,161.16Z"/><path class="cls-37" d="M114.11,193.57a1.55,1.55,0,0,1,0,.23c-.09.35-.2.6-.32.64a7.51,7.51,0,0,1-1.59-.13c-1.22-.15-3-.43-4.6-.74a24.14,24.14,0,0,1-4.39-1.11,8.77,8.77,0,0,1-2.11-2.54c-.2-.32-.41-.64-.61-1-1-1.59-1.81-3.21-2-3.64l-.06-.11v.11a15,15,0,0,1-.71,3.64c-.12.33-.25.66-.4,1a7.31,7.31,0,0,1-.45.83,3.22,3.22,0,0,0-.07,2.82c0,.12.08.24.13.37h0a6.5,6.5,0,0,0,.25.61c.15.36.33.7.48,1a4.64,4.64,0,0,1,.76,2.38.51.51,0,0,1-.16.23,1.66,1.66,0,0,1-.23.19,8.58,8.58,0,0,1-1.55.8c-3.92,1.62-12.66,3.5-16.46,0l-.2-.18,0-.05a1,1,0,0,1-.33-.76,2.29,2.29,0,0,1,.48-1.17,23.64,23.64,0,0,0,1.62-2.47,8,8,0,0,0,.44-1,7.64,7.64,0,0,0,.44-1.77c.07-.64.13-1.26.18-1.88,0-.33,0-.65.07-1,.07-1.27.08-2.48.07-3.64,0-.34,0-.66,0-1,0-1.3-.09-2.51-.14-3.65l0-1a28.5,28.5,0,0,1,.07-3.64c0-.34.08-.67.15-1a6.05,6.05,0,0,1,2-3.64l.12-.11c.39-.33.77-.62,1.13-.87a13.25,13.25,0,0,1,1.14-.76c2.37-1.43,3.57-1.22,3.57-1.22a16.93,16.93,0,0,1,1.8.23,20.89,20.89,0,0,1,3.84,1l.5.2c.36.16.71.32,1.06.51s.46.25.68.39.56.38.82.59a6.94,6.94,0,0,1,1.67,1.83c.32.54.65,1.16,1,1.81q.24.48.48,1c.54,1.15,1.06,2.4,1.55,3.64.13.33.26.66.38,1,.51,1.31,1,2.57,1.33,3.65.12.34.24.67.34,1l.7,2.14c.13.41,1,.8,2.07,1.16.35.12.73.23,1.11.34.75.22,1.53.41,2.22.6.53.13,1,.27,1.36.38a1.77,1.77,0,0,1,.68.33.91.91,0,0,1,.06.16A9.71,9.71,0,0,1,114.11,193.57Z"/><g class="cls-12"><path class="cls-13" d="M97.75,170.67c.29.16.58.33.85.51H85.29l.68-.51H97.75m.06-.23H85.9c-.36.25-.74.54-1.13.87l-.12.11H99.31a9.2,9.2,0,0,0-1.5-1Z"/><path class="cls-13" d="M101.82,175.3c.08.16.17.33.25.51H82.81c0-.18,0-.35.08-.51h18.93m.14-.24H82.7c-.07.32-.11.65-.15,1h19.89q-.24-.51-.48-1Z"/><path class="cls-13" d="M103.84,179.92c.06.17.13.35.2.52H82.74c0-.17,0-.34,0-.52h21.12m.15-.23H82.48l0,1h21.86c-.12-.32-.25-.65-.38-1Z"/><path class="cls-13" d="M105.54,184.55l.12.36,0,.16H82.9c0-.18,0-.35,0-.52h22.65m.16-.23h-23c0,.32,0,.64,0,1H106c-.1-.31-.22-.64-.34-1Z"/><path class="cls-13" d="M97.3,189.17c-.07.19-.15.36-.22.52H82.78c0-.17,0-.34,0-.52H97.3m.33-.23h-15c0,.33,0,.65-.07,1h14.7c.15-.32.28-.65.4-1Z"/><path class="cls-13" d="M109.89,189.17c.58.17,1.18.32,1.74.47l.2.05H101.18c-.11-.17-.22-.34-.32-.52h9m0-.23h-9.48c.2.34.41.66.61,1H113.5c-.36-.11-.83-.25-1.36-.38-.69-.19-1.47-.38-2.22-.6Z"/><path class="cls-13" d="M96.54,193.8a.78.78,0,0,1,0,.14l0,.08,0,0c0,.09.07.18.11.27H81.85c.08-.17.15-.34.22-.52H96.54m.17-.23H81.91a8,8,0,0,1-.44,1H97.1a6.5,6.5,0,0,1-.25-.61h0c0-.13-.09-.25-.13-.37Z"/><path class="cls-13" d="M113.82,193.8a3.37,3.37,0,0,1-.15.42h-.08a12,12,0,0,1-1.41-.14c-.58-.07-1.25-.17-2-.28h3.59m-.15.42h0m.44-.65h-6.56c1.64.31,3.38.59,4.6.74a13.34,13.34,0,0,0,1.44.14h.15c.12,0,.23-.29.32-.64a1.55,1.55,0,0,0,0-.23Z"/><path class="cls-13" d="M97.44,198.43a11.44,11.44,0,0,1-1.09.52H80l-.12-.12-.16.17.13-.21a.94.94,0,0,1-.24-.36H97.44m.74-.24H79.37a1,1,0,0,0,.33.76l0,.05.2.18H96.4a8.58,8.58,0,0,0,1.55-.8,1.66,1.66,0,0,0,.23-.19Z"/></g><path class="cls-2" d="M99.61,241.53a2.94,2.94,0,0,1-.23.51c-1.1,1.88-4.11,2.07-5.22,1.72a.84.84,0,0,1-.33-.17c-.66-.58-1.24-5.37-4.8-32.55v.24c-.06,3.86-.87,10.71-1.73,17-.94,7-1.93,13.29-2.06,14.28a1.6,1.6,0,0,1-.41.87,3.41,3.41,0,0,1-5-.39,3.69,3.69,0,0,1-.34-.48A181.19,181.19,0,0,0,79.37,213a53.35,53.35,0,0,1-.26-8.77,38.49,38.49,0,0,1,.63-5.26c3.76,3.82,13,1.76,16.88.08a7.8,7.8,0,0,0,1.33-.7C99,202.74,98.62,215.65,99.61,241.53Z"/><path class="cls-14" d="M96.75,169.93c-6.38.2-8.21,10.14-8.21,10.14L87,169.68c2.37-1.43,3.57-1.22,3.57-1.22A21.08,21.08,0,0,1,96.75,169.93Z"/><path class="cls-32" d="M106.91,250.23H94.19c0-.35-.07-.9-.09-1.54V248c0-1.51,0-3.29.07-4.24a4.08,4.08,0,0,0,1.22.14,5.43,5.43,0,0,0,3.14-.94,3,3,0,0,0,.85-.92,8.71,8.71,0,0,0,3.89,3.64c1.33.72,2.58,1.2,3.09,1.58a1.89,1.89,0,0,1,.72,1.43A4.43,4.43,0,0,1,106.91,250.23Z"/><path class="cls-32" d="M85,248.69c0,1-.1,1.54-.1,1.54H77.61c.09-.53.2-1,.33-1.54a35.64,35.64,0,0,1,1.89-5.61,3.46,3.46,0,0,0,1.65,1.14,3.65,3.65,0,0,0,2.07,0,2.72,2.72,0,0,0,1.28-.78A38.06,38.06,0,0,1,85,248.69Z"/><path class="cls-38" d="M120.9,191.88c-.14.8-3,3.3-3.86,3.06a2.69,2.69,0,0,1-.43-.19,5.07,5.07,0,0,0-2.55-.95,9.84,9.84,0,0,0,.18-3.39l.56-.27a7.9,7.9,0,0,1,2.85-.88C118.56,189.4,121,191.08,120.9,191.88Z"/><path class="cls-14" d="M98.34,198a.9.9,0,0,1-.39.42c-2.29,1.63-13.88,5-18.21.62l0-.05c-.57-.58-.35-1.17.15-1.93a8.08,8.08,0,0,0,3.71,1.36c3.86.63,10.71-.41,14-2.8A4.64,4.64,0,0,1,98.34,198Z"/><path class="cls-14" d="M114.06,193.8c-.09.35-.2.6-.32.64a7.51,7.51,0,0,1-1.59-.13,8.56,8.56,0,0,0,0-4.77,6.23,6.23,0,0,1,2,.71.91.91,0,0,1,.06.16A9.84,9.84,0,0,1,114.06,193.8Z"/><path class="cls-14" d="M96.84,193.94c-1.47-1.44-.84-2.59,0-5.45s-.84-4.08-1.11-7.27,0-5,2-7.11a13.38,13.38,0,0,0,.57,11.08,12.88,12.88,0,0,1-1.56,5.56A3.52,3.52,0,0,0,96.84,193.94Z"/><path class="cls-14" d="M97.58,163.59c-.85,1.81-2.12,3.81-2.4,3.86-.44.09-.64-3.16-1.85-3.44s-1.44,2-.59,2.78c.41.38.14,1.35-.47,2.1a2.1,2.1,0,0,1-2.77.74c-2-1.24-2.38-9-2.37-9.61a4.1,4.1,0,0,1,.13-1.19c1-.05,3.26.08,3.8,2.11a9.85,9.85,0,0,1,.48,3.29A2,2,0,0,1,94,162.34C95.12,162.57,96.37,163.36,97.58,163.59Z"/><path class="cls-2" d="M89.33,160.86s-.83-1.74-3.47-1.24S82,163.5,83.21,169c0-4.87.75-6,.75-6s-1.12,3,.33,9.67,2.27,13.18-1.33,16c7.15-4,7.56-8.81,7.15-14.59S91,163.25,89.33,160.86Z"/><path class="cls-14" d="M93.62,166.74a4.68,4.68,0,0,0,2.84,2.72l-.07.11-.14.16a20.89,20.89,0,0,0-3.84-1c.51-.71.7-1.55.33-1.9-.85-.8-.62-3.06.59-2.78s1.41,3.53,1.85,3.44,2.09-2.9,2.83-4.89c0,0-.06,1-.22,2.22a12.91,12.91,0,0,1-2,2.83c-.91.79-1.26-.19-1.51-.78S93.68,166.27,93.62,166.74Z"/><path class="cls-39" d="M81.19,204.16s-.2,3.73.28,4.74a4.74,4.74,0,0,0,2,1.71s1.82-.77,2.3-1.88a20.79,20.79,0,0,0,.42-4.86S82.49,202.92,81.19,204.16Z"/><path class="cls-27" d="M96.84,201.16a5.35,5.35,0,0,1-2.49,4.62"/><line class="cls-27" x1="96.21" y1="203.81" x2="98.34" y2="240.87"/><path class="cls-14" d="M89,211.25v0c-.06,3.86-.87,10.71-1.73,17-.12-7.38-1.17-16.53-.82-18A3.64,3.64,0,0,0,89,211.25Z"/><line class="cls-27" x1="87.04" y1="212.2" x2="84" y2="242.44"/><path class="cls-14" d="M96.62,199.08c-1.8,1.77-7.39,6.16-17.51,5.18a38.49,38.49,0,0,1,.63-5.26C83.5,202.82,92.76,200.76,96.62,199.08Z"/><path class="cls-14" d="M77.94,248.69h7c0,1-.1,1.54-.1,1.54H77.61C77.7,249.7,77.81,249.19,77.94,248.69Z"/><path class="cls-14" d="M106.91,250.23H94.18a14.14,14.14,0,0,1-.08-1.54h13A4.43,4.43,0,0,1,106.91,250.23Z"/><path class="cls-7" d="M103.27,245.68h0c-2.29,1.11-3.94-1.19-4.74-2.72a3,3,0,0,0,.85-.92A8.71,8.71,0,0,0,103.27,245.68Z"/><path class="cls-14" d="M83.55,244.25c-.24,3.37-1.41,3.49-2,3.15s-.18-2.48,0-3.18A3.65,3.65,0,0,0,83.55,244.25Z"/><path class="cls-14" d="M94.1,248c0-1.51,0-3.29.07-4.24a4.08,4.08,0,0,0,1.22.14C95.54,245,95.67,247.49,94.1,248Z"/><path class="cls-14" d="M114.06,193.8a9.84,9.84,0,0,0,.18-3.39l.56-.27a9,9,0,0,1,1.81,4.61A5.07,5.07,0,0,0,114.06,193.8Z"/><path class="cls-7" d="M108.81,188.6c-2,.2-3.37,2.29-3.54,1.87s.91-1.53.77-2.19-3.21-8.59-4.9-12.47a34.08,34.08,0,0,0-2.65-5c.28.19.56.38.82.59a6.94,6.94,0,0,1,1.67,1.83c.32.54.65,1.16,1,1.81q.24.48.48,1c.54,1.15,1.06,2.4,1.55,3.64.13.33.26.66.38,1,.51,1.31,1,2.57,1.33,3.65.12.34.24.67.34,1l.7,2.14C106.87,187.85,107.72,188.24,108.81,188.6Z"/><path class="cls-2" d="M592.06,252.27c-.66-.5-21.48-56.67,2.48-88.73a189.45,189.45,0,0,0-1.49,41.14l-3.14,3.14,3.47,1s2.34,31.42,3.47,35.05c-2.55-23.47,3.76-37.19,3.76-37.19s-1.11,16.66,1,22.79L600,231.67l1.65-.34s-1.15,10.09,0,13.12c0,0,13.39-40,7.11-57.57,8.26,12.85,6,34.27,6,34.27l-2.15.85,1.32,1s-3.47,22.85-11.4,29.3"/><path class="cls-10" d="M451.79,245.65s-18.55-1.68-26,3.53c3.53-5,17.58-7.34,17.58-7.34l1,.79v-.78a19.4,19.4,0,0,1,5.89-1.7c-16.92-3.35-25-.13-25-.13a25.35,25.35,0,0,1,8.3-4.08A20.07,20.07,0,0,1,442,235l2.05,1.26v-1.35l18,5.28"/><path class="cls-40" d="M523.22,246.65s-2-12.56,8.26-21.26C531.37,235.52,528.53,244.23,523.22,246.65Z"/><path class="cls-15" d="M454.18,238.38l-2,4.88c-1.36-4.92-4.54-5.87-6.13-6a4.43,4.43,0,0,0-1,0l.75-2.4-2.31.4s-2.65-6.35-14.3-14a23.55,23.55,0,0,1,21,10A28.38,28.38,0,0,1,454.18,238.38Z"/><g class="cls-12"><path class="cls-13" d="M429.23,221.2a48.19,48.19,0,0,1,7.45,2.56,46.75,46.75,0,0,1,6.93,3.74,33.05,33.05,0,0,1,6,5.17,23.75,23.75,0,0,1,4.08,6.78.24.24,0,0,1-.13.3.22.22,0,0,1-.3-.13h0v0a23.66,23.66,0,0,0-3.9-6.71,32.79,32.79,0,0,0-5.84-5.19,45.44,45.44,0,0,0-6.85-3.83A48.37,48.37,0,0,0,429.23,221.2Z"/></g><path class="cls-14" d="M454.18,238.38l-2,4.88c-1.36-4.92-4.54-5.87-6.13-6a9.5,9.5,0,0,0,4.19-6.08A28.38,28.38,0,0,1,454.18,238.38Z"/><path class="cls-41" d="M531.48,215c-19.17,15.75-24.12,23.57-24.12,23.57l-3.42-1.49s0,.11,0,.3c0,.85.08,3.33,0,4.15S497,246,493.15,248c-1.56.82-2.65,1.37-2.65,1.37l-3.2-3.2.33-.62,1.66-3.24a79,79,0,0,1,11.86-12.85C508.59,222.92,519.12,216.13,531.48,215Z"/><g class="cls-12"><path class="cls-13" d="M489.24,248.18a112.43,112.43,0,0,1,8.5-10.8,104.8,104.8,0,0,1,9.74-9.69,68,68,0,0,1,11.17-8A39.63,39.63,0,0,1,531.48,215a39.39,39.39,0,0,0-12.78,4.79,67.1,67.1,0,0,0-11.07,8A104,104,0,0,0,498,237.6a112,112,0,0,0-8.37,10.83h0a.24.24,0,0,1-.32.06.23.23,0,0,1-.06-.32Z"/></g><path class="cls-14" d="M503.94,241.57c-.07.72-6.91,4.39-10.79,6.43a52.53,52.53,0,0,1-5.52-2.45l1.66-3.24a79,79,0,0,1,11.86-12.85,24.61,24.61,0,0,0,2.8,8C504,238.27,504,240.75,503.94,241.57Z"/><path class="cls-11" d="M519.42,204.68c-13.72,11.41-20,21-22.58,25.83a25.05,25.05,0,0,0-1.6,3.47l-3-1.1,1.22,2.75-4.36,8.81h0l-1.9,3.85V233c.58-1.13,1.38-2.62,2.41-4.31a70.78,70.78,0,0,1,8.06-10.92,53.91,53.91,0,0,1,5.14-5A34.75,34.75,0,0,1,519.42,204.68Z"/><g class="cls-12"><path class="cls-13" d="M487,239.06a64.28,64.28,0,0,1,5.38-10.91,66.41,66.41,0,0,1,7.27-9.73,52.55,52.55,0,0,1,9.07-8l2.52-1.71,2.66-1.46c.44-.24.88-.5,1.33-.72l1.4-.6,2.79-1.2-2.78,1.23-1.39.61c-.45.23-.88.49-1.32.73l-2.65,1.49-2.49,1.72a52.28,52.28,0,0,0-9,8.11,66.24,66.24,0,0,0-7.15,9.76,63.58,63.58,0,0,0-5.24,10.87v0a.23.23,0,0,1-.3.14.23.23,0,0,1-.13-.3Z"/></g><path class="cls-14" d="M495.24,234l-3-1.1,1.22,2.75-4.36,8.81h0l-1.9.27V233c.58-1.13,1.38-2.62,2.41-4.31a9,9,0,0,0,7.21,1.87A25.05,25.05,0,0,0,495.24,234Z"/><path class="cls-16" d="M536.88,250.31H487.22v-7a6.14,6.14,0,0,1,2.73-2.7,7.12,7.12,0,0,1,2.24-.68,4.55,4.55,0,0,1,4.95,2.56s.91-2.65,4.63-3,5.81,5.31,5.94,5.65c0-.29-.28-3.42,2.48-3.62s2.9,3.64,2.9,3.64,2.31-2.52,5.28-2.36a4,4,0,0,1,3.64,3.06,4.87,4.87,0,0,1,5.28-1.61C530.93,245.16,531.34,250.31,536.88,250.31Z"/><path class="cls-14" d="M521.37,250.31H487.22v-7a6.14,6.14,0,0,1,2.73-2.7c1.49.11,4.11.59,5.21,2.62a14.26,14.26,0,0,1,1.68,5.62s3.33-4.78,6-4,4.06,4,4.06,4,2.8-3,5.16-2C513.24,247.4,517.46,248.92,521.37,250.31Z"/><path class="cls-2" d="M423.35,252.27c-.19-.14-6-15.94.69-25a52.76,52.76,0,0,0-.41,11.57l-.89.88,1,.28s.66,8.83,1,9.85c-.71-6.6,1.06-10.45,1.06-10.45s-.31,4.68.29,6.4l-.46.63.46-.1a13.82,13.82,0,0,0,0,3.69s3.76-11.25,2-16.19c2.32,3.61,1.67,9.64,1.67,9.64l-.6.24.37.27s-1,6.43-3.21,8.24"/><path class="cls-10" d="M196.64,247.13s-29.26-19.74-46.4-17.91c10.44-5.08,35.89,3.9,35.89,3.9l1,2.25.72-1.29a37.21,37.21,0,0,1,11.33,2.56c-25-21-41.38-23-41.38-23a47.88,47.88,0,0,1,17.5.79c10,2.22,14.8,6.17,14.8,6.17l2.26,4,1.25-2.24,25,25.2"/><path class="cls-40" d="M173.84,249.46s-12.35-2.64-20.12-11.9C166.94,238.88,172.65,243.67,173.84,249.46Z"/><path class="cls-41" d="M215.18,193.8c-1.06,24.79,1.47,33.7,1.47,33.7l-3.39,1.55.22.19c.65.55,2.54,2.16,3.09,2.78s-1.34,8.07-2.41,12.33c-.43,1.7-.74,2.88-.74,2.88l-4.52.25-.25-.66-1.3-3.4a79.15,79.15,0,0,1-1.67-17.4C205.78,216.11,207.75,203.74,215.18,193.8Z"/><g class="cls-12"><path class="cls-13" d="M211.68,247.37a113,113,0,0,1-2.37-13.53,103.22,103.22,0,0,1-.71-13.72,67.83,67.83,0,0,1,1.51-13.63,39.5,39.5,0,0,1,5.07-12.69,39.4,39.4,0,0,0-5,12.71,67.68,67.68,0,0,0-1.4,13.61,102.38,102.38,0,0,0,.82,13.67,113.59,113.59,0,0,0,2.48,13.47h0a.23.23,0,0,1-.45.12Z"/></g><path class="cls-14" d="M216.57,232c.48.53-1.34,8.07-2.41,12.33a55.11,55.11,0,0,1-5.51,2.47l-1.3-3.4a79.15,79.15,0,0,1-1.67-17.4,24.89,24.89,0,0,0,7.8,3.22C214.13,229.79,216,231.4,216.57,232Z"/><path class="cls-11" d="M232.66,210.87c-6.12,10.69-7.88,18.37-8.38,22.15a16.73,16.73,0,0,0-.19,2.63H221.9l1.44,1.48-.69,6.75h0l-.3,3-3.7-9.94c.1-.87.26-2,.52-3.37a48.46,48.46,0,0,1,2.58-9,35.4,35.4,0,0,1,2.13-4.45A23.94,23.94,0,0,1,232.66,210.87Z"/><g class="cls-12"><path class="cls-13" d="M219.9,240.92a44.18,44.18,0,0,1,.88-8.36,45.09,45.09,0,0,1,2.38-8.05,36.23,36.23,0,0,1,3.94-7.4l1.22-1.7,1.37-1.59.69-.79.76-.72,1.52-1.44-1.5,1.46-.74.73c-.24.26-.46.54-.68.8l-1.35,1.6-1.2,1.72a36.35,36.35,0,0,0-3.82,7.41,45.58,45.58,0,0,0-2.25,8,44.46,44.46,0,0,0-.75,8.29h0a.23.23,0,0,1-.23.23.23.23,0,0,1-.24-.22Z"/></g><path class="cls-14" d="M224.09,235.65H221.9l1.44,1.48-.69,6.75h0l-1.17.64-2.83-7.62c.1-.87.26-2,.52-3.37a6.17,6.17,0,0,0,5.11-.52A16.73,16.73,0,0,0,224.09,235.65Z"/><path class="cls-16" d="M253.68,250.23H241.26l-54,0-16,0s1.32-4.32,7.6-6.3,8.09,2.12,8.09,2.12-.34-8.21,7.11-11,10.74,6.6,10.74,6.6,1.48-4.65,9.41-5,7.11,5.79,7.11,5.79a14.5,14.5,0,0,1,12.56-3.87c8.09,1.14,8.92,7.56,8.92,7.56S249.88,244.06,253.68,250.23Z"/><path class="cls-14" d="M241.26,250.24l-54,0c2.79-2.48,7.35-5.71,12.21-5.76,7.93-.08,9.21,2.79,9.21,2.79s4.89-5.19,8.74-4.31,4,5,4,5S233.79,245.17,241.26,250.24Z"/><path class="cls-2" d="M262.6,253.68s-9-15.88-6.27-31.31a53.16,53.16,0,0,0,9.08,20.07l-2.64,2.09h2.64L271,255.24l-7.6-1.56v.74Z"/></g></g></g></svg>