<svg xmlns="http://www.w3.org/2000/svg" xmlns:xlink="http://www.w3.org/1999/xlink" viewBox="0 0 1568.07 793.18"><defs><style>.cls-1{fill:#f7941d;}.cls-2{fill:#f26522;}.cls-3{fill:#bcbec0;opacity:0.27;}.cls-4{clip-path:url(#clip-path);}.cls-5{fill:#f9ab5d;}.cls-6{fill:#434d6a;}.cls-7{fill:#2a2d4b;}.cls-8{fill:#52607c;}.cls-9{clip-path:url(#clip-path-2);}.cls-10{clip-path:url(#clip-path-3);}.cls-11{fill:#d1d3d4;}.cls-12{clip-path:url(#clip-path-4);}.cls-13{clip-path:url(#clip-path-5);}.cls-14{clip-path:url(#clip-path-6);}.cls-15{clip-path:url(#clip-path-7);}.cls-16{clip-path:url(#clip-path-8);}.cls-17{clip-path:url(#clip-path-9);}.cls-18{fill:#da927e;}.cls-19{fill:#995042;}.cls-20{clip-path:url(#clip-path-10);}.cls-21{fill:#754436;}</style><clipPath id="clip-path"><path class="cls-1" d="M238.76,288.28l-.95,192.18a6,6,0,0,1-6,5.93l-33.7-.17a6,6,0,0,1-5.92-6l1-192.18a6,6,0,0,1,6-5.92l33.7.16A6,6,0,0,1,238.76,288.28Z"/></clipPath><clipPath id="clip-path-2"><path class="cls-1" d="M284.5,288.51l-.95,192.18a6,6,0,0,1-6,5.92l-33.7-.16a6,6,0,0,1-5.92-6l.95-192.18a6,6,0,0,1,6-5.93l33.7.17A6,6,0,0,1,284.5,288.51Z"/></clipPath><clipPath id="clip-path-3"><path class="cls-1" d="M329.82,288.73l-1,192.18a6,6,0,0,1-6,5.93l-33.7-.17a6,6,0,0,1-5.93-6l1-192.19a6,6,0,0,1,6-5.92l33.7.17A6,6,0,0,1,329.82,288.73Z"/></clipPath><clipPath id="clip-path-4"><path class="cls-1" d="M935.86,407.34l-189.15,2.11a5.87,5.87,0,0,1-5.93-5.8l-.37-33.17a5.86,5.86,0,0,1,5.8-5.92l189.15-2.11a5.85,5.85,0,0,1,5.92,5.8l.37,33.16A5.86,5.86,0,0,1,935.86,407.34Z"/></clipPath><clipPath id="clip-path-5"><rect class="cls-1" x="741.09" y="408.52" width="200.89" height="44.89" rx="5.86" transform="translate(-4.75 9.4) rotate(-0.64)"/></clipPath><clipPath id="clip-path-6"><rect class="cls-1" x="741.59" y="453.12" width="200.89" height="44.89" rx="5.86" transform="translate(-5.24 9.4) rotate(-0.64)"/></clipPath><clipPath id="clip-path-7"><path class="cls-1" d="M1324.88,290.06l2.1,189.16a5.85,5.85,0,0,1-5.79,5.92l-33.17.37a5.86,5.86,0,0,1-5.93-5.79L1280,290.56a5.85,5.85,0,0,1,5.79-5.92l33.17-.37A5.86,5.86,0,0,1,1324.88,290.06Z"/></clipPath><clipPath id="clip-path-8"><path class="cls-1" d="M1369.9,289.56l2.1,189.15a5.86,5.86,0,0,1-5.79,5.93L1333,485a5.86,5.86,0,0,1-5.93-5.8L1325,290.06a5.85,5.85,0,0,1,5.79-5.92l33.17-.37A5.86,5.86,0,0,1,1369.9,289.56Z"/></clipPath><clipPath id="clip-path-9"><path class="cls-1" d="M1414.5,289.07l2.1,189.15a5.85,5.85,0,0,1-5.79,5.92l-33.17.37a5.86,5.86,0,0,1-5.93-5.79l-2.1-189.16a5.86,5.86,0,0,1,5.79-5.92l33.17-.37A5.86,5.86,0,0,1,1414.5,289.07Z"/></clipPath><clipPath id="clip-path-10"><rect class="cls-2" x="1469.29" y="589.76" width="76.1" height="20.55" rx="3.65"/></clipPath></defs><g id="Layer_2" data-name="Layer 2"><g id="_404" data-name="404"><ellipse class="cls-3" cx="809.81" cy="484.51" rx="748.59" ry="32.84"/><path class="cls-1" d="M238.76,288.28l-.95,192.18a6,6,0,0,1-6,5.93l-33.7-.17a6,6,0,0,1-5.92-6l1-192.18a6,6,0,0,1,6-5.92l33.7.16A6,6,0,0,1,238.76,288.28Z"/><g class="cls-4"><rect class="cls-2" x="122.16" y="368.86" width="217.64" height="30.99" transform="translate(-154.52 613.42) rotate(-89.72)"/><path class="cls-5" d="M200,287.84l-1,192.68a8.89,8.89,0,0,1-8.92,8.84h0a8.89,8.89,0,0,1-8.84-8.93l1-192.68a8.88,8.88,0,0,1,8.92-8.84h0A8.89,8.89,0,0,1,200,287.84Z"/></g><rect class="cls-6" x="205.65" y="430.32" width="18.96" height="45.61" transform="translate(-239.05 666) rotate(-89.72)"/><rect class="cls-7" x="217.06" y="441.78" width="18.96" height="22.8" transform="translate(-227.76 677.46) rotate(-89.72)"/><rect class="cls-8" x="186.27" y="449.6" width="18.96" height="6.85" transform="translate(-258.24 646.53) rotate(-89.72)"/><rect class="cls-6" x="206.34" y="292.59" width="18.96" height="45.61" transform="translate(-100.64 529.64) rotate(-89.72)"/><rect class="cls-7" x="217.74" y="304.04" width="18.96" height="22.8" transform="translate(-89.35 541.1) rotate(-89.72)"/><rect class="cls-8" x="186.96" y="311.87" width="18.96" height="6.85" transform="translate(-119.83 510.16) rotate(-89.72)"/><path class="cls-1" d="M284.5,288.51l-.95,192.18a6,6,0,0,1-6,5.92l-33.7-.16a6,6,0,0,1-5.92-6l.95-192.18a6,6,0,0,1,6-5.93l33.7.17A6,6,0,0,1,284.5,288.51Z"/><g class="cls-9"><rect class="cls-2" x="167.9" y="369.08" width="217.64" height="30.99" transform="matrix(0, -1, 1, 0, -109.23, 659.38)"/><path class="cls-5" d="M245.74,288.06l-1,192.69a8.87,8.87,0,0,1-8.92,8.83h0a8.88,8.88,0,0,1-8.84-8.92L228,288a8.87,8.87,0,0,1,8.92-8.84h0A8.87,8.87,0,0,1,245.74,288.06Z"/></g><rect class="cls-6" x="251.4" y="430.55" width="18.96" height="45.61" transform="translate(-193.76 711.97) rotate(-89.72)"/><rect class="cls-7" x="262.8" y="442.01" width="18.96" height="22.8" transform="translate(-182.47 723.43) rotate(-89.72)"/><rect class="cls-8" x="232.02" y="449.83" width="18.96" height="6.85" transform="matrix(0, -1, 1, 0, -212.95, 692.5)"/><rect class="cls-6" x="252.08" y="292.81" width="18.96" height="45.61" transform="translate(-55.35 575.61) rotate(-89.72)"/><rect class="cls-7" x="263.48" y="304.27" width="18.96" height="22.8" transform="translate(-44.06 587.07) rotate(-89.72)"/><rect class="cls-8" x="232.7" y="312.1" width="18.96" height="6.85" transform="translate(-74.54 556.13) rotate(-89.72)"/><path class="cls-1" d="M329.82,288.73l-1,192.18a6,6,0,0,1-6,5.93l-33.7-.17a6,6,0,0,1-5.93-6l1-192.19a6,6,0,0,1,6-5.92l33.7.17A6,6,0,0,1,329.82,288.73Z"/><g class="cls-10"><rect class="cls-2" x="213.21" y="369.31" width="217.64" height="30.99" transform="translate(-64.37 704.92) rotate(-89.72)"/><path class="cls-5" d="M291.06,288.29,290.1,481a8.89,8.89,0,0,1-8.93,8.84h0a8.88,8.88,0,0,1-8.83-8.93l1-192.68a8.89,8.89,0,0,1,8.93-8.84h0A8.89,8.89,0,0,1,291.06,288.29Z"/></g><rect class="cls-6" x="296.71" y="430.77" width="18.96" height="45.61" transform="translate(-148.9 757.51) rotate(-89.72)"/><rect class="cls-7" x="308.11" y="442.23" width="18.96" height="22.8" transform="translate(-137.61 768.97) rotate(-89.72)"/><rect class="cls-8" x="277.33" y="450.06" width="18.96" height="6.85" transform="translate(-168.09 738.04) rotate(-89.72)"/><rect class="cls-6" x="297.39" y="293.04" width="18.96" height="45.61" transform="matrix(0, -1, 1, 0, -10.49, 621.14)"/><rect class="cls-7" x="308.8" y="304.5" width="18.96" height="22.8" transform="matrix(0, -1, 1, 0, 0.8, 632.6)"/><rect class="cls-8" x="278.01" y="312.32" width="18.96" height="6.85" transform="translate(-29.67 601.67) rotate(-89.72)"/><path class="cls-11" d="M356.63,388.18H138V313.27l225.42-303H482.62V292.84h67.43v95.34H482.62v98.07h-126ZM375,292.84V156.64L274.91,292.84Z"/><path class="cls-11" d="M673.31,466.84q-49.71-29.62-76.61-85.47t-26.9-132.8q0-76.93,26.56-132.8T672.29,30Q721.66,0,789.09,0T905.88,30q49.38,30,75.94,85.8t26.56,132.8q0,77-26.9,132.8t-76.62,85.47q-49.71,29.63-115.77,29.63T673.31,466.84ZM859.91,348q25.2-35.4,25.2-98.06,0-63.34-24.86-99.77t-71.16-36.44q-46.32,0-71.17,36.44t-24.86,99.77q0,62.65,25.2,98.06t70.83,35.42Q834.71,383.42,859.91,348Z"/><path class="cls-11" d="M1246.74,388.18H1028.13V313.27l225.42-303h119.18V292.84h67.42v95.34h-67.42v98.07h-126Zm18.39-95.34V156.64L1165,292.84Z"/><path class="cls-1" d="M935.86,407.34l-189.15,2.11a5.87,5.87,0,0,1-5.93-5.8l-.37-33.17a5.86,5.86,0,0,1,5.8-5.92l189.15-2.11a5.85,5.85,0,0,1,5.92,5.8l.37,33.16A5.86,5.86,0,0,1,935.86,407.34Z"/><g class="cls-12"><rect class="cls-2" x="734.08" y="385.95" width="214.22" height="30.5" transform="translate(-4.41 9.39) rotate(-0.64)"/><path class="cls-5" d="M935.68,369.19,746,371.3a8.75,8.75,0,0,1-8.84-8.65h0a8.73,8.73,0,0,1,8.64-8.83l189.64-2.12a8.75,8.75,0,0,1,8.84,8.65h0A8.74,8.74,0,0,1,935.68,369.19Z"/></g><rect class="cls-6" x="763.92" y="364.26" width="18.67" height="44.89" transform="translate(-4.26 8.63) rotate(-0.64)"/><rect class="cls-7" x="764.04" y="386.7" width="18.67" height="22.45" transform="translate(-4.38 8.63) rotate(-0.64)"/><rect class="cls-8" x="763.71" y="364.26" width="18.67" height="6.74" transform="translate(-4.04 8.63) rotate(-0.64)"/><rect class="cls-6" x="899.48" y="362.75" width="18.67" height="44.89" transform="translate(-4.23 10.14) rotate(-0.64)"/><rect class="cls-7" x="899.61" y="385.19" width="18.67" height="22.45" transform="translate(-4.36 10.14) rotate(-0.64)"/><rect class="cls-8" x="899.27" y="362.75" width="18.67" height="6.74" transform="translate(-4.02 10.14) rotate(-0.64)"/><rect class="cls-1" x="741.09" y="408.52" width="200.89" height="44.89" rx="5.86" transform="translate(-4.75 9.4) rotate(-0.64)"/><g class="cls-13"><rect class="cls-2" x="734.58" y="430.97" width="214.22" height="30.5" transform="translate(-4.92 9.4) rotate(-0.64)"/><path class="cls-5" d="M936.18,414.21l-189.64,2.11a8.74,8.74,0,0,1-8.84-8.64h0a8.73,8.73,0,0,1,8.64-8.84L936,396.73a8.73,8.73,0,0,1,8.83,8.64h0A8.74,8.74,0,0,1,936.18,414.21Z"/></g><rect class="cls-6" x="764.42" y="409.28" width="18.67" height="44.89" transform="translate(-4.76 8.64) rotate(-0.64)"/><rect class="cls-7" x="764.54" y="431.72" width="18.67" height="22.45" transform="translate(-4.88 8.64) rotate(-0.64)"/><rect class="cls-8" x="764.21" y="409.28" width="18.67" height="6.74" transform="translate(-4.55 8.64) rotate(-0.64)"/><rect class="cls-6" x="899.98" y="407.77" width="18.67" height="44.89" transform="translate(-4.73 10.15) rotate(-0.64)"/><rect class="cls-7" x="900.11" y="430.21" width="18.67" height="22.45" transform="translate(-4.86 10.15) rotate(-0.64)"/><rect class="cls-8" x="899.77" y="407.77" width="18.67" height="6.74" transform="translate(-4.52 10.15) rotate(-0.64)"/><rect class="cls-1" x="741.59" y="453.12" width="200.89" height="44.89" rx="5.86" transform="translate(-5.24 9.4) rotate(-0.64)"/><g class="cls-14"><rect class="cls-2" x="735.07" y="475.57" width="214.22" height="30.5" transform="translate(-5.41 9.41) rotate(-0.64)"/><path class="cls-5" d="M936.68,458.81,747,460.92a8.74,8.74,0,0,1-8.83-8.65h0a8.73,8.73,0,0,1,8.64-8.83l189.64-2.11a8.73,8.73,0,0,1,8.84,8.64h0A8.75,8.75,0,0,1,936.68,458.81Z"/></g><rect class="cls-6" x="764.92" y="453.88" width="18.67" height="44.89" transform="translate(-5.25 8.65) rotate(-0.64)"/><rect class="cls-7" x="765.04" y="476.32" width="18.67" height="22.45" transform="translate(-5.38 8.65) rotate(-0.64)"/><rect class="cls-8" x="764.7" y="453.88" width="18.67" height="6.74" transform="translate(-5.04 8.65) rotate(-0.64)"/><rect class="cls-6" x="900.48" y="452.37" width="18.67" height="44.89" transform="translate(-5.23 10.16) rotate(-0.64)"/><rect class="cls-7" x="900.6" y="474.81" width="18.67" height="22.45" transform="translate(-5.35 10.16) rotate(-0.64)"/><rect class="cls-8" x="900.27" y="452.37" width="18.67" height="6.74" transform="translate(-5.02 10.15) rotate(-0.64)"/><path class="cls-1" d="M1324.88,290.06l2.1,189.16a5.85,5.85,0,0,1-5.79,5.92l-33.17.37a5.86,5.86,0,0,1-5.93-5.79L1280,290.56a5.85,5.85,0,0,1,5.79-5.92l33.17-.37A5.86,5.86,0,0,1,1324.88,290.06Z"/><g class="cls-15"><rect class="cls-2" x="1211.63" y="369.49" width="214.22" height="30.5" transform="translate(948.7 1707.68) rotate(-90.64)"/><path class="cls-5" d="M1286.72,290.24l2.11,189.65a8.73,8.73,0,0,1-8.64,8.83h0a8.74,8.74,0,0,1-8.84-8.64l-2.11-189.64a8.74,8.74,0,0,1,8.64-8.84h0A8.73,8.73,0,0,1,1286.72,290.24Z"/></g><rect class="cls-6" x="1294.91" y="430.22" width="18.67" height="44.89" transform="translate(866.12 1761.87) rotate(-90.64)"/><rect class="cls-7" x="1306.13" y="441.32" width="18.67" height="22.45" transform="translate(877.6 1772.97) rotate(-90.64)"/><rect class="cls-8" x="1275.83" y="449.51" width="18.67" height="6.74" transform="translate(846.62 1743.01) rotate(-90.64)"/><rect class="cls-6" x="1293.4" y="294.66" width="18.67" height="44.89" transform="translate(1000.14 1623.29) rotate(-90.64)"/><rect class="cls-7" x="1304.62" y="305.76" width="18.67" height="22.45" transform="translate(1011.62 1634.38) rotate(-90.64)"/><rect class="cls-8" x="1274.32" y="313.95" width="18.67" height="6.74" transform="translate(980.65 1604.43) rotate(-90.64)"/><path class="cls-1" d="M1369.9,289.56l2.1,189.15a5.86,5.86,0,0,1-5.79,5.93L1333,485a5.86,5.86,0,0,1-5.93-5.8L1325,290.06a5.85,5.85,0,0,1,5.79-5.92l33.17-.37A5.86,5.86,0,0,1,1369.9,289.56Z"/><g class="cls-16"><rect class="cls-2" x="1256.65" y="368.99" width="214.22" height="30.5" transform="translate(994.73 1752.19) rotate(-90.64)"/><path class="cls-5" d="M1331.74,289.74l2.12,189.64a8.75,8.75,0,0,1-8.65,8.84h0a8.74,8.74,0,0,1-8.84-8.64l-2.11-189.64a8.75,8.75,0,0,1,8.65-8.84h0A8.73,8.73,0,0,1,1331.74,289.74Z"/></g><rect class="cls-6" x="1339.93" y="429.72" width="18.67" height="44.89" transform="translate(912.14 1806.38) rotate(-90.64)"/><rect class="cls-7" x="1351.15" y="440.82" width="18.67" height="22.45" transform="translate(923.61 1817.48) rotate(-90.64)"/><rect class="cls-8" x="1320.85" y="449.01" width="18.67" height="6.74" transform="translate(892.63 1787.52) rotate(-90.64)"/><rect class="cls-6" x="1338.42" y="294.16" width="18.67" height="44.89" transform="translate(1046.17 1667.8) rotate(-90.64)"/><rect class="cls-7" x="1349.64" y="305.26" width="18.67" height="22.45" transform="translate(1057.64 1678.9) rotate(-90.64)"/><rect class="cls-8" x="1319.34" y="313.45" width="18.67" height="6.74" transform="translate(1026.67 1648.94) rotate(-90.64)"/><path class="cls-1" d="M1414.5,289.07l2.1,189.15a5.85,5.85,0,0,1-5.79,5.92l-33.17.37a5.86,5.86,0,0,1-5.93-5.79l-2.1-189.16a5.86,5.86,0,0,1,5.79-5.92l33.17-.37A5.86,5.86,0,0,1,1414.5,289.07Z"/><g class="cls-17"><rect class="cls-2" x="1301.25" y="368.49" width="214.22" height="30.5" transform="translate(1040.32 1796.28) rotate(-90.64)"/><path class="cls-5" d="M1376.34,289.24l2.11,189.65a8.74,8.74,0,0,1-8.64,8.84h0a8.75,8.75,0,0,1-8.84-8.65l-2.11-189.64a8.75,8.75,0,0,1,8.65-8.84h0A8.74,8.74,0,0,1,1376.34,289.24Z"/></g><rect class="cls-6" x="1384.53" y="429.23" width="18.67" height="44.89" transform="translate(957.73 1850.47) rotate(-90.64)"/><rect class="cls-7" x="1395.75" y="440.32" width="18.67" height="22.45" transform="translate(969.2 1861.57) rotate(-90.64)"/><rect class="cls-8" x="1365.45" y="448.52" width="18.67" height="6.74" transform="translate(938.24 1831.62) rotate(-90.64)"/><rect class="cls-6" x="1383.02" y="293.66" width="18.67" height="44.89" transform="translate(1091.76 1711.89) rotate(-90.64)"/><rect class="cls-7" x="1394.24" y="304.76" width="18.67" height="22.45" transform="translate(1103.23 1722.99) rotate(-90.64)"/><rect class="cls-8" x="1363.94" y="312.95" width="18.67" height="6.74" transform="translate(1072.26 1693.03) rotate(-90.64)"/><path class="cls-7" d="M82.65,741.29a74.45,74.45,0,0,1,0-148.9H959.2a51.06,51.06,0,0,0,51-51v-5h75.53a49.72,49.72,0,0,0,49.67-49.66V281.6a48.53,48.53,0,0,1,48.47-48.48h142.71a17.09,17.09,0,0,1,17.07,17.07v.8h-21a22.56,22.56,0,0,0-22.54,22.54v10.9h8.2v-10.9a14.35,14.35,0,0,1,14.34-14.34h21v25.24h8.2V259.19h22.07a14.35,14.35,0,0,1,14.33,14.34v9.92h8.2v-9.92A22.56,22.56,0,0,0,1373.92,251h-22.07v-.8a25.3,25.3,0,0,0-25.27-25.27H1183.87a56.73,56.73,0,0,0-56.67,56.68V486.75a41.51,41.51,0,0,1-41.47,41.46H1010.2V467a41.26,41.26,0,0,0-32.36-40.23V402.85a23.56,23.56,0,0,0-23.53-23.53H941.47v8.2h12.84a15.34,15.34,0,0,1,15.33,15.33v22.92l-.64,0H942V434h27l.64,0v24.77a11.75,11.75,0,0,1-11.73,11.73H942.47v8.19h15.44a20,20,0,0,0,19.93-19.92V435.16A33,33,0,0,1,1002,467v74.44a42.85,42.85,0,0,1-42.8,42.8H417.32V312.51a51.93,51.93,0,0,0-51.88-51.88H324a22.12,22.12,0,0,0-22.1,22.1h8.19A13.93,13.93,0,0,1,324,268.82h41.48a43.73,43.73,0,0,1,43.68,43.69V584.19H82.65a82.65,82.65,0,1,0,0,165.29H1535.76v-8.19Z"/><rect class="cls-6" x="1503.6" y="617.73" width="8.49" height="48.83"/><rect class="cls-7" x="1488.27" y="666.56" width="39.16" height="7.42"/><rect class="cls-7" x="1487.76" y="610.3" width="39.16" height="7.42"/><path class="cls-18" d="M1564.35,681.42H1451.4a3.72,3.72,0,0,1-3.72-3.72h0a3.71,3.71,0,0,1,3.72-3.71h112.95a3.71,3.71,0,0,1,3.72,3.71h0A3.72,3.72,0,0,1,1564.35,681.42Z"/><path class="cls-18" d="M1564.35,793.18H1451.4a3.72,3.72,0,0,1-3.72-3.72h0a3.71,3.71,0,0,1,3.72-3.71h112.95a3.71,3.71,0,0,1,3.72,3.71h0A3.72,3.72,0,0,1,1564.35,793.18Z"/><rect class="cls-19" x="1455.17" y="681.42" width="104.33" height="104.33"/><rect class="cls-2" x="1469.29" y="589.76" width="76.1" height="20.55" rx="3.65"/><g class="cls-20"><path class="cls-1" d="M1548.34,597.1h-77.56a6.36,6.36,0,0,1-6.36-6.36h0a6.36,6.36,0,0,1,6.36-6.36h77.56a6.36,6.36,0,0,1,6.36,6.36h0A6.36,6.36,0,0,1,1548.34,597.1Z"/></g><polygon class="cls-21" points="1465.75 681.42 1465.75 691.15 1532 691.15 1532 777.74 1465.75 777.74 1465.75 785.75 1559.5 785.75 1559.5 681.42 1465.75 681.42"/><rect class="cls-18" x="1471.18" y="681.42" width="4.51" height="104.33"/><rect class="cls-18" x="1493.75" y="681.42" width="4.51" height="104.33"/><rect class="cls-18" x="1516.95" y="681.42" width="4.51" height="104.33"/><rect class="cls-18" x="1539.52" y="681.42" width="4.51" height="104.33"/></g></g></svg>