<svg xmlns="http://www.w3.org/2000/svg" xmlns:xlink="http://www.w3.org/1999/xlink" viewBox="0 0 515.51 406.32"><defs><style>.cls-1,.cls-2{opacity:0.37;}.cls-1,.cls-2,.cls-24,.cls-28{isolation:isolate;}.cls-1{fill:url(#linear-gradient);}.cls-2{fill:url(#linear-gradient-2);}.cls-3{fill:url(#linear-gradient-3);}.cls-4{fill:url(#linear-gradient-4);}.cls-5{fill:url(#linear-gradient-5);}.cls-6{fill:url(#linear-gradient-6);}.cls-7{fill:url(#linear-gradient-7);}.cls-8{fill:url(#linear-gradient-8);}.cls-9{fill:url(#linear-gradient-9);}.cls-10{fill:#111023;}.cls-11{fill:url(#linear-gradient-10);}.cls-12{fill:url(#linear-gradient-11);}.cls-13{fill:url(#linear-gradient-12);}.cls-14{fill:url(#linear-gradient-13);}.cls-15{fill:url(#linear-gradient-14);}.cls-16{fill:url(#linear-gradient-15);}.cls-17{fill:url(#linear-gradient-16);}.cls-18{fill:#5b2b89;}.cls-19{fill:url(#linear-gradient-17);}.cls-20{fill:url(#linear-gradient-18);}.cls-21{fill:url(#linear-gradient-19);}.cls-22{fill:url(#linear-gradient-20);}.cls-23{fill:url(#linear-gradient-21);}.cls-24{opacity:0.38;fill:url(#linear-gradient-22);}.cls-25{fill:url(#linear-gradient-23);}.cls-26{fill:#f79244;}.cls-27{fill:#fff;}.cls-28{opacity:0.5;fill:url(#linear-gradient-24);}.cls-29{fill:url(#linear-gradient-25);}.cls-30{fill:url(#linear-gradient-26);}.cls-31{fill:#e9fdff;}.cls-32{fill:url(#linear-gradient-27);}.cls-33{fill:url(#linear-gradient-28);}.cls-34{fill:#2a2a2a;}.cls-35{fill:url(#linear-gradient-29);}</style><linearGradient id="linear-gradient" x1="248.81" y1="71.68" x2="264.99" y2="316" gradientTransform="matrix(1, 0, 0, -1, 0, 416.29)" gradientUnits="userSpaceOnUse"><stop offset="0" stop-color="#31d1d6"/><stop offset="0.37" stop-color="#32ced8"/><stop offset="0.62" stop-color="#36c6df"/><stop offset="0.82" stop-color="#3cb7eb"/><stop offset="1" stop-color="#45a3fa"/></linearGradient><linearGradient id="linear-gradient-2" x1="261.97" y1="71.68" x2="278.15" y2="316" xlink:href="#linear-gradient"/><linearGradient id="linear-gradient-3" x1="99.57" y1="261.18" x2="99.57" y2="303.78" gradientTransform="matrix(1, 0, 0, -1, 0, 416.29)" gradientUnits="userSpaceOnUse"><stop offset="0" stop-color="#f9e6d9"/><stop offset="0.12" stop-color="#fcf1ea"/><stop offset="0.27" stop-color="#fef9f6"/><stop offset="0.48" stop-color="#fffefd"/><stop offset="1" stop-color="#fff"/></linearGradient><linearGradient id="linear-gradient-4" x1="391.67" y1="231.27" x2="394.37" y2="272.8" xlink:href="#linear-gradient-3"/><linearGradient id="linear-gradient-5" x1="79.15" y1="158.63" x2="192.29" y2="158.63" xlink:href="#linear-gradient"/><linearGradient id="linear-gradient-6" x1="126.13" y1="76.09" x2="125.05" y2="131.1" xlink:href="#linear-gradient-3"/><linearGradient id="linear-gradient-7" x1="257.42" y1="42.39" x2="370.56" y2="42.39" gradientTransform="matrix(0.98, -0.19, -0.19, -0.98, 81.6, 369.68)" xlink:href="#linear-gradient"/><linearGradient id="linear-gradient-8" x1="378.13" y1="81.03" x2="377.05" y2="136.05" xlink:href="#linear-gradient-3"/><linearGradient id="linear-gradient-9" x1="151.15" y1="228.1" x2="183.15" y2="236.37" xlink:href="#linear-gradient"/><linearGradient id="linear-gradient-10" x1="87.63" y1="258.49" x2="158.87" y2="258.49" xlink:href="#linear-gradient"/><linearGradient id="linear-gradient-11" x1="38.03" y1="400.17" x2="90.41" y2="400.17" gradientTransform="matrix(1, 0, 0, -1, 0, 416.29)" gradientUnits="userSpaceOnUse"><stop offset="0" stop-color="#51adc6"/><stop offset="0.01" stop-color="#55afc4"/><stop offset="0.07" stop-color="#74bfb5"/><stop offset="0.13" stop-color="#8fcda7"/><stop offset="0.21" stop-color="#a5d89d"/><stop offset="0.3" stop-color="#b6e094"/><stop offset="0.41" stop-color="#c1e78e"/><stop offset="0.57" stop-color="#c8ea8b"/><stop offset="1" stop-color="#caeb8a"/></linearGradient><linearGradient id="linear-gradient-12" x1="40.95" y1="406.22" x2="32.47" y2="406.22" gradientTransform="matrix(1, 0, 0, -1, 0, 416.29)" gradientUnits="userSpaceOnUse"><stop offset="0" stop-color="#8aebd6"/><stop offset="0.46" stop-color="#89e9d7"/><stop offset="0.63" stop-color="#84e2da"/><stop offset="0.75" stop-color="#7dd7de"/><stop offset="0.84" stop-color="#72c6e5"/><stop offset="0.92" stop-color="#64b0ee"/><stop offset="0.99" stop-color="#5395f9"/><stop offset="1" stop-color="#5193fa"/></linearGradient><linearGradient id="linear-gradient-13" x1="42.5" y1="401.15" x2="32.43" y2="401.15" xlink:href="#linear-gradient"/><linearGradient id="linear-gradient-14" x1="42.52" y1="395.31" x2="33.26" y2="395.31" xlink:href="#linear-gradient-12"/><linearGradient id="linear-gradient-15" x1="90.41" y1="400.68" x2="121.21" y2="400.68" xlink:href="#linear-gradient"/><linearGradient id="linear-gradient-16" x1="76.94" y1="391.05" x2="91.63" y2="391.05" gradientTransform="matrix(1, 0, 0, -1, 0, 416.29)" gradientUnits="userSpaceOnUse"><stop offset="0" stop-color="#f7be86"/><stop offset="0.33" stop-color="#f7bc83"/><stop offset="0.54" stop-color="#f7b67b"/><stop offset="0.73" stop-color="#f7ac6c"/><stop offset="0.89" stop-color="#f79e57"/><stop offset="1" stop-color="#f79244"/></linearGradient><linearGradient id="linear-gradient-17" x1="163.69" y1="379.82" x2="163.21" y2="362.15" gradientTransform="matrix(1, 0, 0, -1, 0, 416.29)" gradientUnits="userSpaceOnUse"><stop offset="0" stop-color="#7b6ed6"/><stop offset="0.48" stop-color="#796dd5"/><stop offset="0.65" stop-color="#7268d0"/><stop offset="0.78" stop-color="#6760c9"/><stop offset="0.88" stop-color="#5655be"/><stop offset="0.96" stop-color="#4047b0"/><stop offset="1" stop-color="#333ea8"/></linearGradient><linearGradient id="linear-gradient-18" x1="175.6" y1="379.59" x2="174.3" y2="338.58" xlink:href="#linear-gradient-17"/><linearGradient id="linear-gradient-19" x1="186.41" y1="379.19" x2="185.93" y2="361.52" xlink:href="#linear-gradient-17"/><linearGradient id="linear-gradient-20" x1="81.9" y1="341.95" x2="199.9" y2="341.95" xlink:href="#linear-gradient-17"/><linearGradient id="linear-gradient-21" x1="132.99" y1="391.77" x2="154.34" y2="391.77" xlink:href="#linear-gradient-16"/><linearGradient id="linear-gradient-22" x1="144.39" y1="350.34" x2="199.9" y2="350.34" gradientTransform="matrix(1, 0, 0, -1, 0, 416.29)" gradientUnits="userSpaceOnUse"><stop offset="0" stop-color="#3c0887"/><stop offset="0.32" stop-color="#3f0987"/><stop offset="0.53" stop-color="#470e87"/><stop offset="0.71" stop-color="#561588"/><stop offset="0.87" stop-color="#6b1f89"/><stop offset="1" stop-color="#822a8a"/></linearGradient><linearGradient id="linear-gradient-23" x1="157.54" y1="387.21" x2="185.6" y2="387.21" xlink:href="#linear-gradient-16"/><linearGradient id="linear-gradient-24" x1="267.4" y1="7.26" x2="268.48" y2="81.68" xlink:href="#linear-gradient-12"/><linearGradient id="linear-gradient-25" x1="442.31" y1="12.03" x2="442.31" y2="77.56" xlink:href="#linear-gradient-12"/><linearGradient id="linear-gradient-26" x1="119.3" y1="12.03" x2="119.3" y2="77.56" xlink:href="#linear-gradient-12"/><linearGradient id="linear-gradient-27" x1="267.78" y1="256.51" x2="373.14" y2="256.51" gradientTransform="matrix(0.98, 0.2, 0.2, -0.98, -100.51, 470.68)" xlink:href="#linear-gradient"/><linearGradient id="linear-gradient-28" x1="251.67" y1="78.56" x2="250.59" y2="133.57" xlink:href="#linear-gradient-3"/><linearGradient id="linear-gradient-29" x1="302.71" y1="213.86" x2="345.41" y2="213.86" xlink:href="#linear-gradient-17"/></defs><g id="Layer_2" data-name="Layer 2"><g id="Layer_1-2" data-name="Layer 1"><g id="OBJECTS"><path class="cls-1" d="M65.06,330.6H13.57C-.2,316.29-3.89,293.48,4.34,275.4c7.84-17.23,24.69-28.62,34.89-44.57,21.78-34,11.25-84.75,40.84-112.27,14.8-13.76,36.07-17.74,56.2-19.35s40.95-1.56,59.57-9.39c23-9.65,40.27-30.38,63.93-38.19,26.55-8.77,58.33,2.18,73.85,25.44,9.71,14.56,13.37,32.85,24.86,46.06,18.57,21.35,51.29,23,74.45,39.27a69.27,69.27,0,0,1,28.66,48.67c2.47,23.31-6.38,49.78,7.59,68.59,6.82,9.18,17.87,14.35,25.21,23.11s9.37,16.68,7.07,27.83Z"/><path class="cls-2" d="M78.21,330.6H26.73C13,316.29,9.27,293.48,17.5,275.4c7.84-17.23,24.68-28.62,34.89-44.57,21.77-34,11.25-84.75,40.84-112.27,14.79-13.76,36.06-17.74,56.2-19.35s40.95-1.56,59.57-9.39c23-9.65,40.27-30.38,63.92-38.19,26.56-8.77,58.33,2.18,73.85,25.44,9.71,14.56,13.38,32.85,24.86,46.06,18.58,21.35,51.29,23,74.45,39.27a69.21,69.21,0,0,1,28.66,48.67c2.47,23.31-6.37,49.78,7.6,68.59,6.81,9.18,17.86,14.35,25.2,23.11s9.38,16.68,7.08,27.83Z"/><path class="cls-3" d="M196.7,154.31l-2.12.07H3.12l-.46.06c-1.9-12.7,8-25.6,20.55-29,10.94-3,23.74-.33,32.9-7,8.21-6,10.25-17.19,15.62-25.82A36.56,36.56,0,0,1,85.4,79.74c7-3.75,15.69-5.06,22.85-1.67,12.68,6,15.11,22.82,23.59,34,1.89,2.5,4.27,4.83,7.3,5.66,2.79.77,5.75.17,8.61-.34,9.37-1.65,20.61-1.5,26.44,6,2.74,3.54,3.72,8.08,5.24,12.28s4,8.53,8.22,10c2,.71,4.31.73,6.09,1.92C195.88,149.09,196.57,151.64,196.7,154.31Z"/><path class="cls-4" d="M504.67,178.48H281.4a8.91,8.91,0,0,1-.73-8.74c1.65-3.65,5.09-6.13,8.52-8.19s7.08-4,9.65-7c4.93-5.89,4.64-14.34,5.73-21.94,1.28-9,5.06-17.95,11.88-24a37.16,37.16,0,0,1,9.11-5.82c9.35-4.35,20.93-5.44,29.67,0C363.59,108,367.69,118,375,124.65a13.69,13.69,0,0,0,6,3.52c6.53,1.5,12.08-4.42,17-9,7-6.49,16.26-11.34,25.7-10.13,11.1,1.44,19.68,11,23.89,21.33,1.76,4.32,3.1,9.1,6.6,12.17,9,7.87,24.14-1,34.61,4.77,3.93,2.15,6.56,6.06,8.66,10A72.32,72.32,0,0,1,504.67,178.48Z"/><path class="cls-5" d="M192.29,302.36H176.23v28.23H137.32V302.36H79.15V273.42l60.66-88.69h36.42v88.19h16.06v29.44Zm-55-29.44V256q0-4.78.35-12.92a80.34,80.34,0,0,1,.55-8.53h-1.1a105.37,105.37,0,0,1-7.68,14.37l-16.17,24.05h24Z"/><path class="cls-6" d="M181.66,302.36H165.6V330.6H126.69V302.36H68.53V273.43l60.66-88.69H165.6v88.19h16.06v29.43Zm-55-29.43V256q0-4.78.35-12.92a83.79,83.79,0,0,1,.55-8.53h-1.1a104.87,104.87,0,0,1-7.68,14.37l-16.16,24Z"/><path class="cls-7" d="M446.19,303.33l-5.59-28.9-10.43,2-5.34,1-16.74-86.59-35.76,6.92L329.62,296.4l5.49,28.41,57.11-11.05,3.25,16.83H435.1l-4.68-24.21,5.34-1Zm-70-16.44L363,289.43l9.4-22.18,1.9-4.49a105.8,105.8,0,0,0,4.81-15.57l1.08-.2a84.31,84.31,0,0,0,1.08,8.48q1.2,8,2.11,12.75l3.22,16.65Z"/><path class="cls-8" d="M435.76,305.35l-5.59-28.89-15.77,3.05-16.75-86.59-25.32,4.89-10.43,2-42.71,98.6,5.49,28.4,10.43-2,46.68-9,2.86,14.8h39.63L420,308.4l10.43-2Zm-63.33-38.1c.19,1.09.38,2.08.55,3l3.22,16.65-23.61,4.57,11.31-26.68a105.3,105.3,0,0,0,4.81-15.56l1.08-.21a83.56,83.56,0,0,0,1.08,8.48C371.44,261.31,372,264.57,372.43,267.25Z"/><path class="cls-9" d="M197.72,256.61H174L158.87,146.12S137.07,122.3,112,117.84l23.84-2.57,53.73,1.46Z"/><path class="cls-10" d="M104,195.87s-13.5,19.76-7.51,36.72l25.11-36.72-3.26-4.38Z"/><path class="cls-10" d="M174,256.61l-.8,5.1s-7.16,1-7.56,11.22h18.61l10.11-9.87,1-6.45Z"/><path class="cls-11" d="M145.23,146l-29.77-1.11,4.84,45.59-20.18,7.23-11.63-56.3a17.4,17.4,0,0,1,14.67-22.65l8.87-1h0c25,4.46,46.83,28.28,46.83,28.28Z"/><path class="cls-12" d="M90.41,18.8v1.32l-1.61.21a6.32,6.32,0,0,0-1.3-2c-2.16-1.86-3.65-3.32-5.2-2.43-1.16.68-1.07,3.86-1,5.37L77,21.84l-38.9,4.93,0-.07c2.53-.6,4.49-5.13,4.49-10.63s-1.91-9.9-4.38-10.6l52.27,5.9V18.8Z"/><path class="cls-13" d="M41,8.32a5.09,5.09,0,0,0-.3.5,27.56,27.56,0,0,1-1.52,3.31,4.53,4.53,0,0,1-2.06,1.63,12.22,12.22,0,0,1-2.77.52,6.41,6.41,0,0,0-1.83.47c.3-5.19,2.34-9.23,4.86-9.37l.81.09A5.1,5.1,0,0,1,41,8.32Z"/><path class="cls-14" d="M42.5,15.2l0,.05c-.64.86-.94,1.93-1.54,2.82a5,5,0,0,1-3,2.07c-1.13.25-2.34.12-3.37.63A3.32,3.32,0,0,0,33.26,22a19.82,19.82,0,0,1-.83-5.88c0-.45,0-.89,0-1.32a6.41,6.41,0,0,1,1.83-.47,12.11,12.11,0,0,0,2.77-.52,4.57,4.57,0,0,0,2.07-1.64,28.23,28.23,0,0,0,1.51-3.3,4.14,4.14,0,0,1,.3-.5A17.38,17.38,0,0,1,42.5,15.2Z"/><path class="cls-15" d="M42.52,16.07c0,5.5-2,10-4.49,10.63a2.6,2.6,0,0,1-.56.07c-1.76,0-3.31-1.91-4.21-4.82a3.25,3.25,0,0,1,1.26-1.18c1-.51,2.24-.38,3.37-.63a5,5,0,0,0,3-2.07c.59-.89.9-2,1.54-2.82l0-.05C42.51,15.49,42.52,15.78,42.52,16.07Z"/><path class="cls-10" d="M121.21,13.46h15.72a13.51,13.51,0,0,0-3.67,2c-.49.46-.28,1.3.34,2.37H121.21Z"/><path class="cls-10" d="M156.06,16.09v1.74h-8.52a31.11,31.11,0,0,1-1.64-4.37h10.16v2.63Z"/><polygon class="cls-16" points="121.21 17.83 121.21 18.8 90.41 18.8 90.41 12.42 121.21 12.42 121.21 13.46 121.21 17.83"/><path class="cls-17" d="M91.63,29.69l-6.78,5.16s-8.24-8.63-7.9-13l4.39-.56c-.11-1.51-.2-4.69,1-5.37,1.55-.89,3,.57,5.2,2.43a6.32,6.32,0,0,1,1.3,2A55.55,55.55,0,0,1,91.63,29.69Z"/><path class="cls-18" d="M46,5.51c-.45-1-1.92-.14-1.47.84A20,20,0,0,1,43.62,25a.85.85,0,0,0,1.47.84A21.81,21.81,0,0,0,46,5.51Z"/><polygon class="cls-19" points="166.76 36.5 166.76 41.73 160.5 35.81 166.76 36.5"/><path class="cls-20" d="M166.76,41.73l6.3,6,6,5.68s13.78-9.65,19.13-9.73a6.44,6.44,0,0,1,1.09.07c4.71.67,7.6,6.12,6.77,11.35-.89,5.64-.73,11.87-6.16,12.88s-29.34,6.82-29.34,6.82L144.39,39.24l3.08-2.15,6.87-4.81,1.39-1,3,2.85,1.75,1.65Z"/><path class="cls-21" d="M183.66,37.59l15.63,6.11a6.44,6.44,0,0,0-1.09-.07c-5.35.08-19.12,9.73-19.12,9.73l-6-5.68Z"/><path class="cls-22" d="M199.9,67.94l-9.08,24.72-1.21,24.07s-1.07.19-2.92.45c-8.65,1.24-34.59,4.2-50.81-1.91l6.32-29.91-2.92-23.58L104,65.67,81.9,37.09l2.95-2.24,6.78-5.16,20.9,20.42,32.72-14.3a11.92,11.92,0,0,0,2.22,1.28l-3.08,2.16,26.17,35.5S194.47,69,199.9,67.94Z"/><path class="cls-23" d="M154.34,32.29l-6.87,4.8a12,12,0,0,1-2.21-1.28,7.87,7.87,0,0,1-3.61-5.52c-.3-3.46-6.14-9.09-8.05-12.46-.62-1.07-.83-1.91-.34-2.37a13.51,13.51,0,0,1,3.67-2c3.64-1.44,8.48-2.42,8.92-.18,0,.05,0,.12,0,.18a31.48,31.48,0,0,0,1.65,4.37C150,23.64,154.34,32.29,154.34,32.29Z"/><path class="cls-24" d="M190.82,92.66c-40-8.5-46.43-53.41-46.43-53.41l26.17,35.53,29.34-6.84Z"/><path class="cls-25" d="M183.43,15.76c.85-.24,1.7-.06,2,1.29.79,3.09-2.68,6.8-2.68,6.8l.86,13.74-10.6,10.09,4.15-11.87-10.45.69-6.26-.69-1.75-1.65s-1.21-11.39-1.21-18.07a22,22,0,0,1,.22-3.67l.06-.32c7.32,1.23,17.48-1.63,17.48-1.63s1.42,13.87,3.37,14.11,2.55-7.53,2.55-7.53A6.69,6.69,0,0,1,183.43,15.76Z"/><path class="cls-10" d="M183.51,5.68l-.08,10.08a6.69,6.69,0,0,0-2.21,1.29s-.6,7.77-2.55,7.54-3.37-14.11-3.37-14.11-10.16,2.85-17.48,1.62h0a9.85,9.85,0,0,1-5.65-2.58c-5.6-5.9-3.65-9.24,4.37-7.42S181.2-5.75,183.51,5.68Z"/><polygon class="cls-26" points="177.21 35.81 173.06 47.68 166.76 41.73 166.76 36.5 177.21 35.81"/><path class="cls-10" d="M157.12,13.93a6.1,6.1,0,0,1,5-.3c1,.38.25,1.9-.77,1.53a4.2,4.2,0,0,0-3.28.2C157.07,15.85,156.13,14.42,157.12,13.93Z"/><ellipse class="cls-10" cx="172.66" cy="17.98" rx="1.23" ry="1.82" transform="translate(-0.7 9.04) rotate(-2.99)"/><path class="cls-10" d="M174.81,13.52a6.06,6.06,0,0,0-5,.23c-1,.47-.06,1.91.92,1.43A4.22,4.22,0,0,1,174,15C175.06,15.42,175.84,13.91,174.81,13.52Z"/><path class="cls-26" d="M163,23.62c.55-2.58,1.88-5.21,2.78-7.69.19-.52,1-.13.77.38L164.79,21a10.11,10.11,0,0,0-.73,2c-.19,1.95.7,1.8,1.71,2.27.5.23.12,1-.38.76C164.15,25.47,162.57,25.4,163,23.62Z"/><path class="cls-10" d="M162,18.2a5.36,5.36,0,0,0-2.73-1.2c-.63-.08-.9.88-.26,1a4.49,4.49,0,0,1,1.46.43l-1.6.52c-.61.2-.35,1.16.26,1l2.64-.86C162.1,18.93,162.32,18.45,162,18.2Z"/><ellipse class="cls-27" cx="166.14" cy="31.25" rx="2.23" ry="3.21"/><path class="cls-28" d="M472.65,330.6H71.39S49.8,344.93,81.9,347.36s82.16,4.72,80.93,15.64-30.23,8.76-30.23,28,133.7,14.83,133.7,14.83,75.53,1,86.29-11.77-30.45-24.45-23-29.48,61.77,10.06,69.86-2.16-1.62-20,13.3-21.57S470.13,345.12,472.65,330.6Z"/><ellipse class="cls-29" cx="442.31" cy="355.99" rx="30.34" ry="8.63"/><ellipse class="cls-30" cx="119.3" cy="363.45" rx="26.52" ry="6.56"/><ellipse class="cls-31" cx="271.29" cy="389.02" rx="30.12" ry="5.8"/><path class="cls-32" d="M311.13,253.43q-9.27-21.19-34.77-26.4-2.78-.57-5.43-.9-22.5-2.85-37.11,10.74-16.35,15.18-24.14,53.31-4.77,23.35-2.66,40.41h37.16q-.7-10,3.92-32.56,5-24.43,9.9-33,2.85-5,6.45-6.57a9,9,0,0,1,5.59-.54q7.14,1.47,8.22,11.61t-3.77,33.9q-3.64,17.81-7.31,27.17h40.74a179.19,179.19,0,0,0,5-19.32q1.43-7,2.24-13.38Q318.64,270.59,311.13,253.43Z"/><path class="cls-33" d="M300.72,251.31q-8.33-19-29.79-25.18-2.42-.69-5-1.22-26.19-5.35-42.54,9.84t-24.13,53.31q-1.59,7.76-2.41,14.83a104.34,104.34,0,0,0,0,27.7H234c0-.24-.08-.48-.11-.73q-1.17-9.71,3.78-33.95,5-24.43,9.91-33t12-7.11a8.75,8.75,0,0,1,4.82,2.65c1.85,2,3,5,3.4,8.95q1.08,10.16-3.77,33.9-4.08,19.92-8.19,29.29h40.93a181.18,181.18,0,0,0,5.67-21.43Q310,272.5,300.72,251.31Z"/><polygon class="cls-34" points="329.09 156.01 328.84 156.21 302.71 176.54 286.4 189.24 272.82 226.81 269.05 225.46 283.04 186.78 326.64 152.85 329.09 156.01"/><path class="cls-35" d="M341.61,240.35c-3,3.53-7,6-11,8.3l-.27-.47c1.57-2,3.23-4.37,2.76-6.88a8.06,8.06,0,0,0-2.88-4.22c-2.19-1.93-4.63-3.56-6.72-5.59a12.94,12.94,0,0,1-4.2-7.47c-.44-3.8,1.61-7.39,2.41-11.13a7.53,7.53,0,0,0-.17-4.51c-1.34-3.18-5.39-3.91-8.6-5.19-2.87-1.16-5.57-3.31-6.37-6.3-1.16-4.34,1.93-8.78,1.51-13.25a8.81,8.81,0,0,0-5.38-7.1l26.13-20.34c4.43,3.84,8.25,8.93,8.3,14.74,0,3.68-1.47,7.18-2.53,10.7a9.55,9.55,0,0,0-.52,4.35c.41,2.22,2.18,3.9,3.81,5.47,3.37,3.23,6.76,7.16,6.7,11.83-.06,5.24-4.53,9.91-3.75,15.09.5,3.31,3,6,4.07,9.13C346.32,231.91,344.58,236.82,341.61,240.35Z"/></g></g></g></svg>